<svg width="60" height="60" viewBox="0 0 60 60" fill="none" xmlns="http://www.w3.org/2000/svg">
<g id="special fetures" clip-path="url(#clip0_1305_3358)">
<path id="Vector" d="M43.1988 11.6236C43.1652 11.5359 43.1315 11.4495 43.0955 11.3617C40.3926 4.78831 33.9753 0.118815 26.4528 0.115237C21.5972 0.112813 17.1908 2.03015 13.9486 5.14991C11.1196 7.87322 9.64313 11.5276 9.58427 15.2372C9.55299 17.1592 10.144 19.0216 11.2457 20.5978L12.0277 21.6985H40.8588L42.0325 20.0703C43.7839 17.6089 44.262 14.4515 43.1988 11.6236ZM39.7716 24.3601L37.1047 25.3919L30.2681 33.6814L31.8243 39.7704L34.0867 41.666L43.6614 37.3955C44.2909 32.8941 42.6811 27.767 39.7716 24.3601ZM15.7817 25.3919L13.1135 24.3401C8.88979 29.2726 7.28605 37.9228 11.3741 42.6692L21.0373 39.7643L22.6181 33.6845L15.7817 25.3919Z" fill="#5FAFFE"/>
<path id="Vector_2" d="M34.252 40.452L31.8493 39.7041H21.0376L11.3744 42.63L6.88137 43.995C4.59527 44.6808 3.03943 46.7991 3.03943 49.1861V54.1739L17.9391 55.5165L34.2572 54.1738L36.398 47.4236L34.252 40.452Z" fill="#5FAFFE"/>
<path id="Vector_3" d="M30.2684 33.7021H22.6186L21.0377 39.7808L21.5783 40.31C24.2656 42.9973 28.6215 42.9916 31.3088 40.3043L31.8494 39.7836L30.2684 33.7021Z" fill="white"/>
<path id="Vector_4" d="M30.2682 33.6562C29.079 34.1056 27.79 34.3517 26.4433 34.3517C25.0967 34.3517 23.8077 34.1054 22.6183 33.6562C19.0781 32.3155 16.4245 29.1693 15.7817 25.342H15.6315C14.6513 25.342 13.7635 24.9504 13.1136 24.3149C12.4432 23.6614 12.0276 22.7485 12.0276 21.7381C12.0276 19.7476 13.6409 18.1342 15.6314 18.1342V16.6806C15.6314 14.5795 17.1859 12.7944 19.269 12.5241C23.4507 11.9835 26.4431 10.2152 26.4431 5.52051C26.4431 10.2152 29.4356 11.9835 33.6173 12.5241C35.7004 12.7944 37.2549 14.5795 37.2549 16.6806V18.1342C39.2454 18.1342 40.8587 19.7475 40.8587 21.7381C40.8587 22.7484 40.4431 23.6626 39.7716 24.3149C39.1229 24.9504 38.234 25.342 37.2549 25.342H37.1047C36.4622 29.1694 33.8085 32.3156 30.2682 33.6562Z" fill="white"/>
<path id="Vector_5" d="M43.6615 37.3955H34.2023V40.4788V54.1736L45.6276 56.6704L58.3248 54.1736V37.3955H43.6615Z" fill="#5FAFFE"/>
<path id="Vector_6" d="M46.2646 43.3623C47.592 43.3623 48.6672 44.4374 48.6672 45.7649C48.6672 47.0923 47.592 48.1674 46.2646 48.1674C44.9372 48.1674 43.8621 47.0923 43.8621 45.7649C43.8621 44.4374 44.9372 43.3623 46.2646 43.3623Z" fill="#B5DBFF"/>
<path id="Vector_7" d="M59.479 54.1738V58.9791H0.615479V54.1738H3.01803H58.2777H59.479Z" fill="#5FAFFE"/>
</g>
<defs>
<clipPath id="clip0_1305_3358">
<rect width="59.0944" height="59.0944" fill="white" transform="translate(0.5)"/>
</clipPath>
</defs>
</svg>
