<svg width="92" height="92" viewBox="0 0 92 92" fill="none" xmlns="http://www.w3.org/2000/svg">
<g id="special fetures" clip-path="url(#clip0_529_6458)">
<path id="Vector" d="M65.8986 18.4288C65.8469 18.2939 65.7951 18.1609 65.7397 18.0259C61.5817 7.91353 51.7095 0.730117 40.137 0.724613C32.6672 0.720884 25.8886 3.67046 20.9009 8.46982C16.5488 12.6593 14.2775 18.2811 14.1869 23.9877C14.1388 26.9446 15.0481 29.8097 16.7429 32.2344L17.9458 33.9277H62.2988L64.1044 31.4229C66.7986 27.6364 67.5342 22.7791 65.8986 18.4288ZM60.6262 38.0222L56.5236 39.6096L46.0064 52.3619L48.4004 61.729L51.8808 64.6451L66.6102 58.0755C67.5786 51.1507 65.1022 43.2633 60.6262 38.0222ZM23.7209 39.6096L19.6163 37.9915C13.1186 45.5795 10.6514 58.8867 16.9403 66.1884L31.8059 61.7196L34.2379 52.3667L23.7209 39.6096Z" fill="#3D9AE2"/>
<path id="Vector_2" d="M52.1347 62.7765L48.4385 61.626H31.806L16.9404 66.127L10.0285 68.227C6.51163 69.282 4.11816 72.5408 4.11816 76.2128V83.8859L27.0393 85.9513L52.1427 83.8857L55.436 73.5015L52.1347 62.7765Z" fill="#3D9AE2"/>
<path id="Vector_3" d="M46.0069 52.3936H34.2386L31.8066 61.7448L32.6383 62.5589C36.7724 66.6929 43.4734 66.6842 47.6074 62.5502L48.4391 61.749L46.0069 52.3936Z" fill="white"/>
<path id="Vector_4" d="M46.0062 52.3232C44.1767 53.0145 42.1937 53.3932 40.122 53.3932C38.0504 53.3932 36.0675 53.0143 34.2377 52.3232C28.7915 50.2607 24.7093 45.4207 23.7205 39.5329H23.4895C21.9815 39.5329 20.6158 38.9305 19.6159 37.9529C18.5847 36.9475 17.9453 35.5431 17.9453 33.9887C17.9453 30.9266 20.4272 28.4445 23.4893 28.4445V26.2084C23.4893 22.9761 25.8807 20.23 29.0852 19.8142C35.5183 18.9825 40.1218 16.2622 40.1218 9.04004C40.1218 16.2622 44.7253 18.9825 51.1584 19.8142C54.3629 20.23 56.7543 22.9761 56.7543 26.2084V28.4445C59.8164 28.4445 62.2983 30.9264 62.2983 33.9887C62.2983 35.5429 61.6589 36.9493 60.6259 37.9529C59.628 38.9305 58.2605 39.5329 56.7543 39.5329H56.5233C55.5348 45.4209 51.4524 50.2609 46.0062 52.3232Z" fill="white"/>
<path id="Vector_5" d="M66.6104 58.0752H52.0586V62.8184V83.8861L69.6349 87.7272L89.168 83.8861V58.0752H66.6104Z" fill="#3D9AE2"/>
<path id="Vector_6" d="M70.615 67.2539C72.6571 67.2539 74.311 68.9078 74.311 70.9499C74.311 72.992 72.6571 74.6459 70.615 74.6459C68.5729 74.6459 66.9189 72.992 66.9189 70.9499C66.9189 68.9078 68.5729 67.2539 70.615 67.2539Z" fill="#B5DBFF"/>
<path id="Vector_7" d="M90.9436 83.8857V91.278H0.389648V83.8857H4.08567H89.0956H90.9436Z" fill="#3D9AE2"/>
</g>
<defs>
<clipPath id="clip0_529_6458">
<rect width="90.9091" height="90.9091" fill="white" transform="translate(0.211914 0.546875)"/>
</clipPath>
</defs>
</svg>
