<svg width="46" height="47" viewBox="0 0 46 47" fill="none" xmlns="http://www.w3.org/2000/svg">
<g id="bi:apple">
<g id="Group">
<path id="Vector" d="M32.148 0.729075C32.0503 0.619825 28.5284 0.7722 25.4637 4.09857C22.3989 7.42207 22.8704 11.2343 22.9394 11.3321C23.0084 11.4298 27.3094 11.5822 30.055 7.71532C32.8007 3.84845 32.2458 0.8412 32.148 0.729075ZM41.6758 34.4614C41.5378 34.1854 34.9914 30.9137 35.6009 24.6232C36.2104 18.3298 40.4165 16.6048 40.4827 16.4179C40.5488 16.2311 38.7663 14.1467 36.8774 13.0916C35.4906 12.3477 33.9556 11.9215 32.3838 11.8438C32.0733 11.8352 30.9952 11.5707 28.7785 12.1773C27.318 12.5769 24.0262 13.8707 23.1205 13.9224C22.212 13.9742 19.5095 12.4217 16.6029 12.0106C14.7428 11.6512 12.7705 12.3872 11.3589 12.9536C9.95016 13.5171 7.27066 15.1213 5.39616 19.3849C3.52166 23.6457 4.50204 30.3962 5.20354 32.4949C5.90504 34.5908 7.00041 38.0264 8.86341 40.5334C10.5194 43.3624 12.7159 45.3261 13.633 45.9931C14.5502 46.6601 17.1377 47.1028 18.9317 46.1857C20.3749 45.3002 22.9797 44.7913 24.0089 44.8287C25.0353 44.8661 27.0593 45.2714 29.1322 46.3783C30.7738 46.9447 32.3263 46.7089 33.8817 46.0764C35.437 45.4411 37.6882 43.0318 40.3159 38.1472C41.3135 35.8759 41.7678 34.6483 41.6758 34.4614Z" fill="white"/>
<path id="Vector_2" d="M32.148 0.729075C32.0503 0.619825 28.5284 0.7722 25.4637 4.09857C22.3989 7.42207 22.8704 11.2343 22.9394 11.3321C23.0084 11.4298 27.3094 11.5822 30.055 7.71532C32.8007 3.84845 32.2458 0.8412 32.148 0.729075ZM41.6758 34.4614C41.5378 34.1854 34.9914 30.9137 35.6009 24.6232C36.2104 18.3298 40.4165 16.6048 40.4827 16.4179C40.5488 16.2311 38.7663 14.1467 36.8774 13.0916C35.4906 12.3477 33.9556 11.9215 32.3838 11.8438C32.0733 11.8352 30.9952 11.5707 28.7785 12.1773C27.318 12.5769 24.0262 13.8707 23.1205 13.9224C22.212 13.9742 19.5095 12.4217 16.6029 12.0106C14.7428 11.6512 12.7705 12.3872 11.3589 12.9536C9.95016 13.5171 7.27066 15.1213 5.39616 19.3849C3.52166 23.6457 4.50204 30.3962 5.20354 32.4949C5.90504 34.5908 7.00041 38.0264 8.86341 40.5334C10.5194 43.3624 12.7159 45.3261 13.633 45.9931C14.5502 46.6601 17.1377 47.1028 18.9317 46.1857C20.3749 45.3002 22.9797 44.7913 24.0089 44.8287C25.0353 44.8661 27.0593 45.2714 29.1322 46.3783C30.7738 46.9447 32.3263 46.7089 33.8817 46.0764C35.437 45.4411 37.6882 43.0318 40.3159 38.1472C41.3135 35.8759 41.7678 34.6483 41.6758 34.4614Z" fill="white"/>
</g>
</g>
</svg>
