<svg width="60" height="60" viewBox="0 0 60 60" fill="none" xmlns="http://www.w3.org/2000/svg">
<g id="special fetures" clip-path="url(#clip0_1305_3363)">
<path id="Vector" d="M45.2825 17.082H14.812C14.5671 17.082 14.3323 17.1793 14.1591 17.3525C13.986 17.5256 13.8887 17.7605 13.8887 18.0054C13.8887 18.2503 13.986 18.4851 14.1591 18.6583C14.3323 18.8314 14.5671 18.9287 14.812 18.9287H45.2825C45.5274 18.9287 45.7623 18.8314 45.9355 18.6583C46.1086 18.4851 46.2059 18.2503 46.2059 18.0054C46.2059 17.7605 46.1086 17.5256 45.9355 17.3525C45.7623 17.1793 45.5274 17.082 45.2825 17.082ZM46.2059 22.6222C46.2059 22.3773 46.1086 22.1424 45.9354 21.9693C45.7623 21.7961 45.5274 21.6988 45.2825 21.6988H14.812C14.5671 21.6988 14.3323 21.7961 14.1591 21.9693C13.986 22.1424 13.8887 22.3773 13.8887 22.6222C13.8887 22.8671 13.986 23.1019 14.1591 23.2751C14.3323 23.4482 14.5671 23.5455 14.812 23.5455H45.2825C45.5274 23.5455 45.7623 23.4482 45.9354 23.2751C46.1086 23.1019 46.2059 22.8671 46.2059 22.6222ZM28.6623 27.239C28.6622 26.9941 28.565 26.7592 28.3918 26.5861C28.2186 26.4129 27.9838 26.3156 27.7389 26.3156H14.812C14.5671 26.3156 14.3323 26.4129 14.1591 26.5861C13.986 26.7592 13.8887 26.9941 13.8887 27.239C13.8887 27.4839 13.986 27.7187 14.1591 27.8919C14.3323 28.065 14.5671 28.1623 14.812 28.1623H27.7389C27.9838 28.1623 28.2186 28.065 28.3918 27.8919C28.565 27.7187 28.6622 27.4838 28.6623 27.239ZM13.8887 36.0109C13.8887 36.7413 14.1053 37.4554 14.5111 38.0628C14.917 38.6702 15.4938 39.1436 16.1687 39.4231C16.8436 39.7026 17.5862 39.7758 18.3026 39.6333C19.0191 39.4907 19.6772 39.139 20.1937 38.6224C20.7102 38.1059 21.062 37.4478 21.2045 36.7314C21.347 36.0149 21.2739 35.2723 20.9943 34.5974C20.7148 33.9225 20.2414 33.3457 19.634 32.9399C19.0266 32.534 18.3126 32.3174 17.5821 32.3174C16.6029 32.3185 15.6641 32.708 14.9717 33.4004C14.2793 34.0929 13.8898 35.0316 13.8887 36.0109ZM19.4288 36.0109C19.4288 36.3761 19.3205 36.7331 19.1175 37.0368C18.9146 37.3405 18.6262 37.5772 18.2888 37.717C17.9513 37.8568 17.58 37.8933 17.2218 37.8221C16.8636 37.7508 16.5345 37.5749 16.2763 37.3167C16.018 37.0584 15.8421 36.7294 15.7709 36.3711C15.6996 36.0129 15.7362 35.6416 15.8759 35.3042C16.0157 34.9667 16.2524 34.6783 16.5561 34.4754C16.8598 34.2725 17.2168 34.1642 17.5821 34.1642C18.0718 34.1642 18.5416 34.3587 18.8879 34.705C19.2342 35.0514 19.4288 35.5211 19.4288 36.0109Z" fill="#FE46A6"/>
<path id="Vector_2" d="M56.8243 4.61719H3.27005C2.53563 4.61799 1.83152 4.9101 1.31221 5.42941C0.792899 5.94873 0.500799 6.65284 0.5 7.38726L0.5 45.2449C0.500799 45.9794 0.792899 46.6835 1.31221 47.2028C1.83152 47.7221 2.53563 48.0142 3.27005 48.015H31.2466L32.5649 46.1683H3.27005C3.02526 46.168 2.79059 46.0706 2.61749 45.8975C2.4444 45.7244 2.34702 45.4897 2.3467 45.245V7.38726C2.34702 7.14247 2.4444 6.9078 2.61749 6.7347C2.79059 6.56161 3.02526 6.46423 3.27005 6.46391H56.8243C57.0691 6.46423 57.3038 6.56161 57.4769 6.7347C57.65 6.9078 57.7473 7.14247 57.7477 7.38726V45.2449C57.7473 45.4897 57.65 45.7244 57.4769 45.8975C57.3038 46.0706 57.0691 46.168 56.8243 46.1683H50.6135L51.9319 48.015H56.8243C57.5587 48.0142 58.2628 47.7221 58.7821 47.2028C59.3015 46.6834 59.5936 45.9793 59.5944 45.2449V7.38726C59.5936 6.65284 59.3015 5.94873 58.7821 5.42941C58.2628 4.9101 57.5587 4.61799 56.8243 4.61719Z" fill="#FE46A6"/>
<path id="Vector_3" d="M38.7764 49.5548L37.1638 51.7853L36.9807 50.8822C36.9409 50.5702 36.7832 50.2853 36.5398 50.086C36.406 49.9767 36.2513 49.8959 36.0852 49.8485C35.919 49.8011 35.7449 49.7882 35.5736 49.8105L34.4185 49.9269L36.177 47.4634C35.5537 47.3376 34.9653 47.0773 34.4529 46.7006L32.1305 49.9539C31.9878 50.148 31.906 50.3802 31.8957 50.6209C31.8853 50.8616 31.9468 51.0999 32.0723 51.3056C32.1997 51.5133 32.3847 51.6795 32.6048 51.7841C32.8249 51.8886 33.0707 51.9269 33.3122 51.8944L35.2616 51.6978L35.6052 53.3926C35.6337 53.6309 35.7317 53.8556 35.887 54.0386C36.0423 54.2217 36.248 54.355 36.4785 54.4219C36.5987 54.4583 36.7235 54.4769 36.8491 54.4769C37.0477 54.477 37.2436 54.4304 37.4208 54.3408C37.598 54.2512 37.7517 54.1211 37.8694 53.9611L41.1918 49.3654C40.7074 49.5619 40.1906 49.6667 39.6679 49.6744C39.3668 49.6735 39.0671 49.6333 38.7764 49.5548ZM48.725 46.7006C48.2125 47.0772 47.6241 47.3375 47.0007 47.4633L48.7593 49.9269L47.6042 49.8105C47.4329 49.7882 47.2588 49.8011 47.0927 49.8484C46.9265 49.8958 46.7718 49.9766 46.638 50.086C46.3947 50.2853 46.2369 50.5702 46.1971 50.8822L46.0141 51.7848L44.3983 49.5502C43.5945 49.7493 42.7478 49.6836 41.9843 49.363L45.313 53.9674C45.4305 54.126 45.5836 54.2547 45.7599 54.3432C45.9363 54.4317 46.131 54.4775 46.3283 54.4769C46.454 54.4768 46.5791 54.4583 46.6994 54.4219C46.9299 54.355 47.1356 54.2217 47.2909 54.0387C47.4462 53.8556 47.5442 53.631 47.5727 53.3926L47.9162 51.6978L49.8657 51.8944C50.1072 51.9271 50.3531 51.8889 50.5732 51.7844C50.7934 51.6798 50.9783 51.5135 51.1056 51.3056C51.2306 51.1017 51.2924 50.8652 51.2832 50.6262C51.274 50.3871 51.1941 50.1562 51.0537 49.9625L48.725 46.7006ZM44.015 47.747C44.6208 47.4832 45.0992 46.9926 45.3477 46.3804C45.4326 46.2039 45.5369 46.0374 45.6588 45.884C45.8461 45.812 46.0411 45.7617 46.24 45.7343C46.5689 45.7427 46.895 45.6712 47.1902 45.5258C47.4855 45.3805 47.741 45.1657 47.935 44.8998C48.129 44.634 48.2555 44.3251 48.3039 43.9996C48.3522 43.6741 48.3208 43.3417 48.2124 43.031C48.1767 42.831 48.1643 42.6275 48.1755 42.4246C48.2816 42.2651 48.4049 42.1178 48.5434 41.9854C49.0535 41.5566 49.3747 40.9443 49.4374 40.2808C49.3747 39.6172 49.0535 39.0049 48.5434 38.5761C48.406 38.4444 48.2831 38.2984 48.1768 38.1405C48.1643 37.9365 48.1763 37.7317 48.2124 37.5305C48.3709 36.8974 48.2723 36.2273 47.9383 35.6667C47.5054 35.1734 46.8948 34.8716 46.24 34.8272C46.0422 34.7997 45.8482 34.7501 45.6615 34.6793C45.5382 34.5255 45.4328 34.3582 45.3473 34.1806C45.099 33.5684 44.6205 33.0779 44.0145 32.8145C43.3838 32.6729 42.7226 32.7858 42.1746 33.1288C41.9897 33.2287 41.7929 33.3049 41.5889 33.3556C41.385 33.3049 41.1882 33.2287 41.0033 33.1288C40.455 32.7861 39.7938 32.6732 39.1629 32.8145C38.5571 33.0783 38.0787 33.5689 37.8302 34.1811C37.7453 34.3576 37.641 34.5241 37.5191 34.6775C37.3318 34.7496 37.1368 34.7998 36.9379 34.8272C36.2832 34.8714 35.6726 35.1731 35.2396 35.6662C34.9056 36.2271 34.807 36.8973 34.9654 37.5305C35.0012 37.7305 35.0136 37.934 35.0024 38.1369C34.8963 38.2964 34.7729 38.4437 34.6345 38.5761C34.1243 39.0049 33.8032 39.6172 33.7405 40.2808C33.8032 40.9443 34.1243 41.5566 34.6345 41.9855C34.7719 42.1171 34.8948 42.2631 35.0011 42.421C35.0136 42.625 35.0016 42.8298 34.9654 43.031C34.8572 43.3417 34.8258 43.6741 34.8742 43.9995C34.9226 44.325 35.0491 44.6339 35.2431 44.8997C35.437 45.1655 35.6926 45.3803 35.9878 45.5257C36.2829 45.671 36.609 45.7426 36.9379 45.7343C37.1357 45.7618 37.3297 45.8114 37.5164 45.8822C37.6397 46.036 37.7451 46.2033 37.8306 46.3809C38.0789 46.9931 38.5574 47.4836 39.1633 47.747C39.3276 47.8003 39.4992 47.8272 39.6719 47.8268C40.1394 47.7955 40.5941 47.6609 41.0033 47.4327C41.1882 47.3328 41.385 47.2566 41.5889 47.2059C41.7929 47.2566 41.9897 47.3328 42.1746 47.4327C42.7229 47.7754 43.3841 47.8883 44.015 47.747ZM40.2152 45.7627C40.0597 45.8409 39.8993 45.9088 39.735 45.9661C39.6301 45.8169 39.5358 45.6605 39.4528 45.4981C39.2818 45.0531 38.9854 44.6672 38.5997 44.3871C38.214 44.107 37.7553 43.9446 37.2792 43.9196C37.1009 43.8906 36.9248 43.8493 36.7522 43.7961C36.755 43.6179 36.7701 43.4402 36.7973 43.2641C36.8901 42.7959 36.8766 42.3129 36.7576 41.8506C36.5856 41.4176 36.3177 41.0291 35.974 40.7145C35.8387 40.5802 35.7146 40.4352 35.603 40.2807C35.7146 40.1263 35.8387 39.9812 35.974 39.847C36.3177 39.5323 36.5856 39.1439 36.7576 38.7108C36.8766 38.2484 36.8901 37.7652 36.7973 37.2969C36.7703 37.1208 36.7552 36.9431 36.7522 36.7649C36.9249 36.712 37.101 36.6709 37.2792 36.6418C37.7554 36.6173 38.2143 36.4551 38.6001 36.1749C38.9859 35.8947 39.2821 35.5086 39.4528 35.0634C39.5357 34.9009 39.63 34.7445 39.735 34.5954C39.8993 34.6527 40.0597 34.7206 40.2152 34.7987C40.6249 35.0622 41.1018 35.2022 41.5889 35.2022C42.0761 35.2022 42.5529 35.0622 42.9627 34.7987C43.1182 34.7206 43.2785 34.6527 43.4428 34.5954C43.5478 34.7445 43.6421 34.9009 43.7251 35.0634C43.8961 35.5083 44.1924 35.8942 44.5782 36.1744C44.9639 36.4545 45.4226 36.6169 45.8986 36.6418C46.0769 36.6708 46.253 36.7121 46.4257 36.7654C46.4228 36.9435 46.4078 37.1213 46.3806 37.2974C46.2877 37.7655 46.3013 38.2486 46.4203 38.7108C46.5923 39.1439 46.8602 39.5323 47.2039 39.847C47.3391 39.9812 47.4632 40.1263 47.5749 40.2807C47.4632 40.4352 47.3391 40.5802 47.2039 40.7145C46.8602 41.0291 46.5923 41.4176 46.4203 41.8506C46.3013 42.313 46.2877 42.7962 46.3806 43.2645C46.4076 43.4406 46.4227 43.6184 46.4257 43.7965C46.253 43.8494 46.0769 43.8905 45.8986 43.9196C45.4224 43.9442 44.9636 44.1064 44.5778 44.3866C44.192 44.6668 43.8958 45.0529 43.7251 45.4981C43.6422 45.6606 43.5479 45.8169 43.4428 45.9661C43.2785 45.9088 43.1182 45.8409 42.9627 45.7627C42.5529 45.4993 42.0761 45.3592 41.5889 45.3592C41.1018 45.3592 40.6249 45.4993 40.2152 45.7627Z" fill="#FE46A6"/>
<path id="Vector_4" d="M44.8209 40.2815C44.8209 39.6423 44.6313 39.0175 44.2762 38.4861C43.9211 37.9546 43.4164 37.5404 42.8259 37.2958C42.2353 37.0512 41.5855 36.9872 40.9587 37.1119C40.3318 37.2366 39.7559 37.5444 39.304 37.9964C38.852 38.4483 38.5442 39.0242 38.4195 39.6511C38.2948 40.278 38.3588 40.9277 38.6034 41.5183C38.848 42.1088 39.2622 42.6135 39.7937 42.9686C40.3252 43.3237 40.95 43.5133 41.5891 43.5133C42.4459 43.5122 43.2673 43.1714 43.8732 42.5655C44.479 41.9597 44.8198 41.1383 44.8209 40.2815ZM41.5891 41.6665C41.3152 41.6665 41.0474 41.5853 40.8197 41.4331C40.5919 41.2809 40.4144 41.0646 40.3096 40.8115C40.2047 40.5584 40.1773 40.28 40.2307 40.0113C40.2842 39.7426 40.4161 39.4958 40.6098 39.3021C40.8035 39.1084 41.0503 38.9765 41.3189 38.9231C41.5876 38.8696 41.8661 38.8971 42.1192 39.0019C42.3723 39.1067 42.5886 39.2843 42.7408 39.512C42.8929 39.7398 42.9742 40.0076 42.9742 40.2815C42.9738 40.6487 42.8277 41.0008 42.5681 41.2604C42.3084 41.5201 41.9564 41.6661 41.5891 41.6665Z" fill="#FE46A6"/>
<path id="Vector_5" d="M54.0545 44.3215C54.5441 44.321 55.0135 44.1263 55.3597 43.7801C55.706 43.4338 55.9007 42.9644 55.9012 42.4748V10.1572C55.9007 9.66762 55.706 9.19819 55.3597 8.85197C55.0135 8.50575 54.5441 8.31104 54.0545 8.31055H6.0403C5.55068 8.31104 5.08125 8.50575 4.73503 8.85197C4.38881 9.19819 4.19409 9.66762 4.1936 10.1572V42.4748C4.19409 42.9644 4.38881 43.4338 4.73503 43.78C5.08125 44.1263 5.55068 44.321 6.0403 44.3215H33.0978C33.0488 43.8997 33.0504 43.4736 33.1028 43.0523C32.9348 42.8694 32.778 42.6765 32.6332 42.4748H6.0403V17.3493L13.1566 10.233C13.1786 10.2089 13.1992 10.1836 13.2184 10.1572H46.8763C46.8955 10.1836 46.9162 10.2089 46.9382 10.233L54.0548 17.3496L54.0558 42.4748H50.5451C50.4004 42.6765 50.2436 42.8694 50.0757 43.0523C50.1281 43.4736 50.1297 43.8997 50.0807 44.3214L54.0545 44.3215ZM6.0403 14.738V10.1572H10.621L6.0403 14.738ZM49.4738 10.1572H54.0545L54.0547 14.7381L49.4738 10.1572Z" fill="#FE46A6"/>
</g>
<defs>
<clipPath id="clip0_1305_3363">
<rect width="59.0944" height="59.0944" fill="white" transform="translate(0.5)"/>
</clipPath>
</defs>
</svg>
