<svg width="92" height="91" viewBox="0 0 92 91" fill="none" xmlns="http://www.w3.org/2000/svg">
<g id="special fetures" clip-path="url(#clip0_529_6468)">
<path id="Vector" d="M69.771 26.2783H22.896C22.5193 26.2783 22.158 26.428 21.8916 26.6944C21.6252 26.9607 21.4756 27.322 21.4756 27.6988C21.4756 28.0755 21.6252 28.4368 21.8916 28.7032C22.158 28.9696 22.5193 29.1192 22.896 29.1192H69.771C70.1478 29.1192 70.5091 28.9696 70.7755 28.7032C71.0418 28.4368 71.1915 28.0755 71.1915 27.6988C71.1915 27.322 71.0418 26.9607 70.7755 26.6944C70.5091 26.428 70.1478 26.2783 69.771 26.2783ZM71.1915 34.8011C71.1915 34.4244 71.0418 34.0631 70.7754 33.7967C70.509 33.5304 70.1478 33.3807 69.771 33.3807H22.896C22.5193 33.3807 22.158 33.5303 21.8916 33.7967C21.6252 34.0631 21.4756 34.4244 21.4756 34.8011C21.4756 35.1779 21.6252 35.5391 21.8916 35.8055C22.158 36.0719 22.5193 36.2216 22.896 36.2216H69.771C70.1478 36.2216 70.509 36.0719 70.7754 35.8055C71.0418 35.5391 71.1915 35.1778 71.1915 34.8011ZM44.2029 41.9035C44.2028 41.5267 44.0532 41.1655 43.7868 40.8991C43.5204 40.6327 43.1591 40.483 42.7824 40.483H22.896C22.5193 40.483 22.158 40.6327 21.8916 40.899C21.6252 41.1654 21.4756 41.5267 21.4756 41.9035C21.4756 42.2802 21.6252 42.6415 21.8916 42.9079C22.158 43.1743 22.5193 43.3239 22.896 43.3239H42.7824C43.1591 43.3239 43.5204 43.1742 43.7868 42.9078C44.0532 42.6415 44.2028 42.2802 44.2029 41.9035ZM21.4756 55.3979C21.4756 56.5217 21.8088 57.6202 22.4332 58.5545C23.0575 59.4889 23.9449 60.2171 24.9831 60.6472C26.0213 61.0772 27.1637 61.1897 28.2659 60.9705C29.3681 60.7512 30.3805 60.2101 31.1751 59.4155C31.9697 58.6209 32.5108 57.6085 32.7301 56.5063C32.9493 55.4041 32.8368 54.2617 32.4067 53.2235C31.9767 52.1853 31.2484 51.2979 30.314 50.6736C29.3797 50.0493 28.2812 49.716 27.1574 49.716C25.651 49.7177 24.2068 50.3169 23.1416 51.3821C22.0765 52.4473 21.4773 53.8915 21.4756 55.3979ZM29.9983 55.3979C29.9983 55.9598 29.8317 56.509 29.5195 56.9762C29.2074 57.4434 28.7637 57.8075 28.2446 58.0226C27.7255 58.2376 27.1543 58.2938 26.6032 58.1842C26.0521 58.0746 25.5459 57.804 25.1486 57.4067C24.7513 57.0094 24.4807 56.5032 24.3711 55.9521C24.2615 55.401 24.3177 54.8298 24.5327 54.3107C24.7478 53.7916 25.1119 53.3479 25.5791 53.0358C26.0463 52.7236 26.5955 52.557 27.1574 52.557C27.9109 52.557 28.6335 52.8563 29.1662 53.3891C29.699 53.9218 29.9983 54.6444 29.9983 55.3979Z" fill="#3D9AE2"/>
<path id="Vector_2" d="M87.5266 7.10254H5.14027C4.01046 7.10378 2.92728 7.55314 2.12839 8.35204C1.32949 9.15094 0.880136 10.2341 0.878906 11.3639L0.878906 69.6031C0.880136 70.7329 1.32949 71.8161 2.12839 72.615C2.92728 73.4139 4.01046 73.8633 5.14027 73.8645H48.1786L50.2066 71.0236H5.14027C4.76369 71.0231 4.40268 70.8733 4.1364 70.607C3.87012 70.3407 3.72031 69.9797 3.71982 69.6031V11.3639C3.72031 10.9874 3.87012 10.6263 4.1364 10.3601C4.40268 10.0938 4.76369 9.94397 5.14027 9.94348H87.5266C87.9032 9.94397 88.2642 10.0938 88.5305 10.3601C88.7968 10.6263 88.9466 10.9874 88.9471 11.3639V69.6031C88.9466 69.9797 88.7968 70.3407 88.5305 70.607C88.2642 70.8733 87.9032 71.0231 87.5266 71.0236H77.9721L80.0003 73.8645H87.5266C88.6564 73.8632 89.7396 73.4139 90.5385 72.615C91.3374 71.8161 91.7868 70.7329 91.788 69.6031V11.3639C91.7868 10.2341 91.3374 9.15094 90.5385 8.35204C89.7396 7.55314 88.6564 7.10378 87.5266 7.10254Z" fill="#3D9AE2"/>
<path id="Vector_3" d="M59.7627 76.2342L57.2819 79.6655L57.0003 78.2763C56.939 77.7963 56.6963 77.358 56.3219 77.0514C56.1161 76.8832 55.8781 76.7589 55.6225 76.686C55.3669 76.6131 55.0992 76.5933 54.8356 76.6276L53.0586 76.8066L55.7639 73.0168C54.8049 72.8233 53.8998 72.4228 53.1116 71.8434L49.5388 76.8481C49.3192 77.1467 49.1934 77.5039 49.1775 77.8742C49.1616 78.2445 49.2562 78.6111 49.4493 78.9275C49.6452 79.2471 49.9298 79.5028 50.2684 79.6636C50.6071 79.8244 50.9851 79.8834 51.3566 79.8333L54.3557 79.5309L54.8842 82.1381C54.928 82.5048 55.0788 82.8504 55.3176 83.132C55.5565 83.4136 55.873 83.6186 56.2276 83.7216C56.4125 83.7776 56.6046 83.8061 56.7978 83.8062C57.1033 83.8063 57.4046 83.7346 57.6772 83.5968C57.9499 83.4589 58.1863 83.2589 58.3674 83.0128L63.4785 75.9428C62.7332 76.2452 61.9382 76.4063 61.134 76.4181C60.6709 76.4168 60.2098 76.3549 59.7627 76.2342ZM75.0673 71.8433C74.279 72.4227 73.3737 72.8231 72.4147 73.0166L75.1201 76.8065L73.3431 76.6276C73.0796 76.5932 72.8118 76.613 72.5562 76.6859C72.3006 76.7588 72.0626 76.8831 71.8568 77.0513C71.4824 77.3579 71.2397 77.7962 71.1784 78.2762L70.8969 79.6648L68.4113 76.2271C67.1746 76.5333 65.8722 76.4323 64.6975 75.9391L69.8183 83.0225C69.9991 83.2663 70.2346 83.4643 70.5059 83.6004C70.7773 83.7366 71.0768 83.8071 71.3803 83.8062C71.5737 83.8061 71.766 83.7776 71.9511 83.7216C72.3058 83.6186 72.6222 83.4136 72.8611 83.132C73.1 82.8504 73.2508 82.5048 73.2946 82.1382L73.8231 79.531L76.8222 79.8334C77.1937 79.8837 77.5718 79.8249 77.9105 79.664C78.2492 79.5032 78.5338 79.2473 78.7295 78.9275C78.9219 78.6138 79.0169 78.2501 79.0028 77.8824C78.9886 77.5146 78.8657 77.1593 78.6498 76.8613L75.0673 71.8433ZM67.8215 73.453C68.7535 73.0472 69.4895 72.2926 69.8718 71.3508C70.0023 71.0792 70.1628 70.823 70.3503 70.5871C70.6385 70.4763 70.9385 70.399 71.2444 70.3569C71.7504 70.3698 72.2521 70.2597 72.7063 70.0361C73.1605 69.8125 73.5536 69.4821 73.852 69.0731C74.1504 68.6642 74.3451 68.1889 74.4194 67.6882C74.4938 67.1874 74.4455 66.6761 74.2788 66.1981C74.2238 65.8904 74.2047 65.5773 74.2219 65.2652C74.3851 65.0199 74.5749 64.7933 74.7879 64.5897C75.5727 63.9299 76.0667 62.988 76.1633 61.9672C76.0667 60.9465 75.5727 60.0046 74.7879 59.3448C74.5765 59.1423 74.3875 58.9176 74.224 58.6748C74.2047 58.3609 74.2231 58.0458 74.2788 57.7363C74.5225 56.7624 74.3709 55.7316 73.8571 54.8691C73.191 54.1102 72.2517 53.6459 71.2444 53.5776C70.9402 53.5354 70.6417 53.4591 70.3545 53.3501C70.1648 53.1135 70.0027 52.8562 69.8711 52.583C69.4891 51.6411 68.753 50.8865 67.8209 50.4814C66.8505 50.2635 65.8334 50.4372 64.9904 50.9648C64.7059 51.1185 64.4032 51.2357 64.0894 51.3137C63.7756 51.2357 63.4729 51.1185 63.1884 50.9648C62.345 50.4376 61.3278 50.2639 60.3572 50.4814C59.4253 50.8872 58.6893 51.6419 58.307 52.5837C58.1765 52.8553 58.0159 53.1114 57.8284 53.3473C57.5403 53.4582 57.2403 53.5355 56.9344 53.5776C55.9271 53.6457 54.9878 54.1097 54.3217 54.8684C53.8079 55.7312 53.6563 56.7622 53.9 57.7364C53.955 58.0441 53.9741 58.3571 53.9569 58.6692C53.7937 58.9146 53.6039 59.1411 53.3909 59.3448C52.6061 60.0046 52.1121 60.9465 52.0155 61.9672C52.1121 62.988 52.6061 63.9299 53.3909 64.5897C53.6023 64.7922 53.7913 65.0168 53.9548 65.2597C53.9741 65.5736 53.9557 65.8886 53.9 66.1981C53.7334 66.6761 53.6852 67.1874 53.7596 67.6881C53.834 68.1888 54.0287 68.664 54.3271 69.0729C54.6255 69.4818 55.0186 69.8122 55.4727 70.0359C55.9268 70.2595 56.4284 70.3696 56.9344 70.3569C57.2386 70.3991 57.5371 70.4754 57.8243 70.5844C58.0139 70.8209 58.1761 71.0783 58.3077 71.3515C58.6896 72.2934 59.4257 73.0479 60.3579 73.453C60.6106 73.535 60.8746 73.5765 61.1403 73.5758C61.8594 73.5277 62.5589 73.3207 63.1884 72.9696C63.4729 72.8159 63.7756 72.6987 64.0894 72.6207C64.4032 72.6987 64.7059 72.8159 64.9903 72.9696C65.8338 73.4969 66.851 73.6705 67.8215 73.453ZM61.976 70.4006C61.7369 70.5208 61.4902 70.6252 61.2374 70.7134C61.0759 70.4839 60.9308 70.2433 60.8032 69.9934C60.5401 69.3089 60.0842 68.7152 59.4908 68.2843C58.8974 67.8534 58.1918 67.6036 57.4595 67.5652C57.1852 67.5205 56.9143 67.457 56.6487 67.3751C56.6531 67.101 56.6762 66.8276 56.718 66.5567C56.8609 65.8365 56.84 65.0934 56.657 64.3823C56.3923 63.7161 55.9802 63.1185 55.4516 62.6344C55.2434 62.4279 55.0525 62.2048 54.8807 61.9672C55.0525 61.7296 55.2434 61.5065 55.4516 61.3C55.9802 60.8158 56.3923 60.2183 56.657 59.5521C56.84 58.8408 56.8609 58.0974 56.718 57.377C56.6765 57.1061 56.6533 56.8326 56.6487 56.5586C56.9144 56.4772 57.1852 56.414 57.4595 56.3692C58.192 56.3314 58.8979 56.0819 59.4914 55.6509C60.0849 55.2198 60.5406 54.6259 60.8032 53.941C60.9307 53.691 61.0758 53.4504 61.2374 53.221C61.4902 53.3091 61.7369 53.4136 61.976 53.5338C62.6064 53.9391 63.34 54.1546 64.0894 54.1546C64.8388 54.1546 65.5724 53.9391 66.2027 53.5338C66.4419 53.4136 66.6886 53.3091 66.9414 53.221C67.1028 53.4505 67.2479 53.6911 67.3755 53.941C67.6387 54.6255 68.0945 55.2191 68.688 55.6501C69.2814 56.081 69.9869 56.3308 70.7193 56.3692C70.9936 56.4138 71.2645 56.4773 71.5301 56.5593C71.5257 56.8333 71.5025 57.1068 71.4607 57.3777C71.3179 58.0979 71.3387 58.841 71.5218 59.5521C71.7864 60.2183 72.1986 60.8158 72.7272 61.3C72.9353 61.5065 73.1262 61.7296 73.298 61.9672C73.1262 62.2048 72.9353 62.4279 72.7272 62.6344C72.1986 63.1185 71.7864 63.7161 71.5218 64.3823C71.3387 65.0936 71.3179 65.8369 71.4607 66.5574C71.5023 66.8283 71.5254 67.1018 71.5301 67.3758C71.2644 67.4572 70.9935 67.5204 70.7193 67.5652C69.9867 67.603 69.2809 67.8525 68.6874 68.2835C68.0939 68.7145 67.6382 69.3085 67.3755 69.9934C67.248 70.2434 67.1029 70.484 66.9414 70.7134C66.6886 70.6252 66.4419 70.5208 66.2027 70.4006C65.5724 69.9953 64.8388 69.7798 64.0894 69.7798C63.34 69.7798 62.6064 69.9953 61.976 70.4006Z" fill="#3D9AE2"/>
<path id="Vector_4" d="M69.0604 61.9686C69.0604 60.9853 68.7688 60.0241 68.2225 59.2066C67.6762 58.389 66.8997 57.7518 65.9913 57.3755C65.0829 56.9992 64.0832 56.9008 63.1188 57.0926C62.1545 57.2844 61.2686 57.7579 60.5733 58.4532C59.878 59.1485 59.4045 60.0344 59.2127 60.9988C59.0209 61.9632 59.1193 62.9628 59.4956 63.8712C59.8719 64.7797 60.5091 65.5561 61.3267 66.1024C62.1443 66.6487 63.1055 66.9403 64.0888 66.9403C65.4068 66.9387 66.6705 66.4143 67.6025 65.4823C68.5345 64.5503 69.0588 63.2867 69.0604 61.9686ZM64.0888 64.0993C63.6674 64.0993 63.2554 63.9743 62.905 63.7402C62.5546 63.5061 62.2816 63.1733 62.1203 62.784C61.959 62.3947 61.9168 61.9663 61.999 61.5529C62.0813 61.1396 62.2842 60.76 62.5822 60.462C62.8801 60.164 63.2598 59.9611 63.6731 59.8789C64.0864 59.7967 64.5148 59.8389 64.9042 60.0001C65.2935 60.1614 65.6263 60.4345 65.8604 60.7849C66.0945 61.1353 66.2195 61.5472 66.2195 61.9686C66.2188 62.5335 65.9942 63.0751 65.5947 63.4746C65.1953 63.874 64.6537 64.0987 64.0888 64.0993Z" fill="#3D9AE2"/>
<path id="Vector_5" d="M83.2651 68.1824C84.0183 68.1816 84.7405 67.8821 85.2731 67.3495C85.8057 66.8169 86.1053 66.0947 86.106 65.3415V15.6251C86.1053 14.8719 85.8057 14.1497 85.2731 13.6171C84.7405 13.0845 84.0183 12.7849 83.2651 12.7842H9.40146C8.64823 12.7849 7.92607 13.0845 7.39346 13.6171C6.86085 14.1497 6.5613 14.8719 6.56055 15.6251V65.3414C6.5613 66.0947 6.86085 66.8168 7.39346 67.3494C7.92607 67.882 8.64823 68.1816 9.40146 68.1824H51.026C50.9505 67.5336 50.9531 66.8781 51.0337 66.2299C50.7752 65.9486 50.534 65.6519 50.3112 65.3414H9.40146V26.6892L20.3489 15.7416C20.3827 15.7045 20.4145 15.6656 20.4441 15.6251H72.2224C72.252 15.6656 72.2838 15.7045 72.3176 15.7416L83.2656 26.6896L83.2672 65.3414H77.8664C77.6437 65.6518 77.4026 65.9485 77.1442 66.2299C77.2248 66.8781 77.2274 67.5336 77.1519 68.1823L83.2651 68.1824ZM9.40146 22.6719V15.6251H16.4482L9.40146 22.6719ZM76.2183 15.6251H83.2651L83.2654 22.6722L76.2183 15.6251Z" fill="#3D9AE2"/>
</g>
<defs>
<clipPath id="clip0_529_6468">
<rect width="90.9091" height="90.9091" fill="white" transform="translate(0.878906)"/>
</clipPath>
</defs>
</svg>
