<svg width="25" height="25" viewBox="0 0 25 25" fill="none" xmlns="http://www.w3.org/2000/svg">
<g id="ant-design:facebook-filled">
<path id="Vector" d="M21.125 3.33105H3.875C3.46016 3.33105 3.125 3.66621 3.125 4.08105V21.3311C3.125 21.7459 3.46016 22.0811 3.875 22.0811H21.125C21.5398 22.0811 21.875 21.7459 21.875 21.3311V4.08105C21.875 3.66621 21.5398 3.33105 21.125 3.33105ZM18.9594 8.80371H17.4617C16.2875 8.80371 16.0602 9.36152 16.0602 10.1818V11.9889H18.8633L18.4977 14.8178H16.0602V22.0811H13.1375V14.8201H10.693V11.9889H13.1375V9.90293C13.1375 7.48184 14.6164 6.1623 16.7773 6.1623C17.8133 6.1623 18.7016 6.23965 18.9617 6.2748V8.80371H18.9594Z" fill="white"/>
</g>
</svg>
