<svg width="46" height="47" viewBox="0 0 46 47" fill="none" xmlns="http://www.w3.org/2000/svg">
<g id="google playstore" clip-path="url(#clip0_1462_1300)">
<g id="Layer 2">
<g id="Layer 3">
<path id="Vector" d="M2.41675 23.7059C2.41675 16.0808 3.85068 10.9791 7.06197 7.76778C10.2733 4.55649 15.3749 3.12256 23.0001 3.12256C30.6252 3.12256 35.7269 4.55649 38.9382 7.76778C42.1495 10.9791 43.5834 16.0808 43.5834 23.7059C43.5834 31.331 42.1495 36.4327 38.9382 39.644C35.7269 42.8553 30.6252 44.2892 23.0001 44.2892C15.3749 44.2892 10.2733 42.8553 7.06197 39.644C3.85068 36.4327 2.41675 31.331 2.41675 23.7059Z" stroke="white"/>
<path id="Vector_2" d="M24.919 23.2079L12.6332 35.4362C12.3444 35.1588 12.1155 34.8253 11.9606 34.4561C11.8057 34.0869 11.728 33.6899 11.7324 33.2895V14.1229C11.7303 13.7165 11.8127 13.3141 11.9744 12.9413C12.136 12.5684 12.3734 12.2333 12.6715 11.957L24.919 23.2079Z" fill="url(#paint0_linear_1462_1300)"/>
<path id="Vector_3" d="M35.6501 23.7051C35.6466 24.2505 35.495 24.7847 35.2114 25.2506C34.9278 25.7165 34.523 26.0966 34.0401 26.3501L30.5326 28.2668L26.1817 24.2801L24.9167 23.2068L29.5359 18.626L33.9826 21.0601C34.4762 21.3059 34.8928 21.6826 35.1868 22.1491C35.4809 22.6155 35.6412 23.1538 35.6501 23.7051Z" fill="url(#paint1_linear_1462_1300)"/>
<path id="Vector_4" d="M24.9155 23.2083L12.668 11.9383C12.8445 11.7782 13.0372 11.6369 13.243 11.5167C13.7377 11.2288 14.2998 11.0771 14.8721 11.0771C15.4445 11.0771 16.0066 11.2288 16.5013 11.5167L29.5921 18.6658L24.9155 23.2083Z" fill="url(#paint2_linear_1462_1300)"/>
<path id="Vector_5" d="M30.5323 28.2872L16.5023 35.9538C16.0132 36.2169 15.4668 36.3552 14.9114 36.3563C14.3231 36.3651 13.7446 36.2055 13.2439 35.8963C13.024 35.7649 12.8184 35.6107 12.6306 35.4363L24.9164 23.208L26.1239 24.3005L30.5323 28.2872Z" fill="url(#paint3_linear_1462_1300)"/>
</g>
</g>
</g>
<defs>
<linearGradient id="paint0_linear_1462_1300" x1="18.364" y1="34.6504" x2="18.364" y2="12.8004" gradientUnits="userSpaceOnUse">
<stop stop-color="#00E4FF"/>
<stop offset="0.99" stop-color="#00CCFF"/>
</linearGradient>
<linearGradient id="paint1_linear_1462_1300" x1="24.9742" y1="23.456" x2="35.6501" y2="23.456" gradientUnits="userSpaceOnUse">
<stop offset="0.01" stop-color="#FFBC00"/>
<stop offset="1" stop-color="#FFE100"/>
</linearGradient>
<linearGradient id="paint2_linear_1462_1300" x1="21.1205" y1="23.2083" x2="21.1205" y2="11.0567" gradientUnits="userSpaceOnUse">
<stop stop-color="#00F055"/>
<stop offset="0.99" stop-color="#00E05A"/>
</linearGradient>
<linearGradient id="paint3_linear_1462_1300" x1="21.5814" y1="36.3563" x2="21.5814" y2="23.208" gradientUnits="userSpaceOnUse">
<stop offset="0.01" stop-color="#DE1646"/>
<stop offset="1" stop-color="#FF2B43"/>
</linearGradient>
<clipPath id="clip0_1462_1300">
<rect width="46" height="46" fill="white" transform="translate(0 0.706055)"/>
</clipPath>
</defs>
</svg>
