<svg width="25" height="24" viewBox="0 0 25 24" fill="none" xmlns="http://www.w3.org/2000/svg">
<g id="LOGO COMPONENT" clip-path="url(#clip0_1630_1274)">
<path id="Vector" d="M5.81891 14.5036L4.9835 17.6223L1.93011 17.6869C1.01759 15.9944 0.5 14.0579 0.5 12.0001C0.5 10.0102 0.983938 8.13374 1.84175 6.48145H1.84241L4.56078 6.97982L5.75159 9.68188C5.50236 10.4085 5.36652 11.1885 5.36652 12.0001C5.36661 12.881 5.52617 13.725 5.81891 14.5036Z" fill="#FBBB00"/>
<path id="Vector_2" d="M24.2902 9.75781C24.428 10.4837 24.4999 11.2334 24.4999 11.9996C24.4999 12.8587 24.4095 13.6967 24.2375 14.5051C23.6533 17.2558 22.1269 19.6578 20.0124 21.3576L20.0118 21.3569L16.5878 21.1822L16.1032 18.1572C17.5063 17.3343 18.6028 16.0466 19.1804 14.5051H12.7637V9.75781H24.2902Z" fill="#518EF8"/>
<path id="Vector_3" d="M20.0114 21.3577L20.0121 21.3584C17.9556 23.0113 15.3433 24.0004 12.4996 24.0004C7.92969 24.0004 3.95652 21.4461 1.92969 17.6872L5.81848 14.5039C6.83187 17.2085 9.44089 19.1338 12.4996 19.1338C13.8143 19.1338 15.046 18.7784 16.1029 18.158L20.0114 21.3577Z" fill="#28B446"/>
<path id="Vector_4" d="M20.1596 2.76262L16.2721 5.94525C15.1783 5.26153 13.8853 4.86656 12.5 4.86656C9.37213 4.86656 6.71431 6.88017 5.75169 9.68175L1.84245 6.48131H1.8418C3.83895 2.63077 7.86223 0 12.5 0C15.4117 0 18.0814 1.03716 20.1596 2.76262Z" fill="#F14336"/>
</g>
<defs>
<clipPath id="clip0_1630_1274">
<rect width="24" height="24" fill="white" transform="translate(0.5)"/>
</clipPath>
</defs>
</svg>
