<svg width="25" height="25" viewBox="0 0 25 25" fill="none" xmlns="http://www.w3.org/2000/svg">
<g id="LOGO COMPONENT" clip-path="url(#clip0_1677_1989)">
<path id="Vector" d="M5.81891 15.0036L4.9835 18.1223L1.93011 18.1869C1.01759 16.4944 0.5 14.5579 0.5 12.5001C0.5 10.5102 0.983938 8.63374 1.84175 6.98145H1.84241L4.56078 7.47982L5.75159 10.1819C5.50236 10.9085 5.36652 11.6885 5.36652 12.5001C5.36661 13.381 5.52617 14.225 5.81891 15.0036Z" fill="#FBBB00"/>
<path id="Vector_2" d="M24.2902 10.2578C24.428 10.9837 24.4999 11.7334 24.4999 12.4996C24.4999 13.3587 24.4095 14.1967 24.2375 15.0051C23.6533 17.7558 22.1269 20.1578 20.0124 21.8576L20.0118 21.8569L16.5878 21.6822L16.1032 18.6572C17.5063 17.8343 18.6028 16.5466 19.1804 15.0051H12.7637V10.2578H24.2902Z" fill="#518EF8"/>
<path id="Vector_3" d="M20.0114 21.8577L20.0121 21.8584C17.9556 23.5113 15.3433 24.5004 12.4996 24.5004C7.92969 24.5004 3.95652 21.9461 1.92969 18.1872L5.81848 15.0039C6.83187 17.7085 9.44089 19.6338 12.4996 19.6338C13.8143 19.6338 15.046 19.2784 16.1029 18.658L20.0114 21.8577Z" fill="#28B446"/>
<path id="Vector_4" d="M20.1596 3.26262L16.2721 6.44525C15.1783 5.76153 13.8853 5.36656 12.5 5.36656C9.37213 5.36656 6.71431 7.38017 5.75169 10.1818L1.84245 6.98131H1.8418C3.83895 3.13077 7.86223 0.5 12.5 0.5C15.4117 0.5 18.0814 1.53716 20.1596 3.26262Z" fill="#F14336"/>
</g>
<defs>
<clipPath id="clip0_1677_1989">
<rect width="24" height="24" fill="white" transform="translate(0.5 0.5)"/>
</clipPath>
</defs>
</svg>
