<svg width="25" height="25" viewBox="0 0 25 25" fill="none" xmlns="http://www.w3.org/2000/svg">
<g id="entypo-social:instagram">
<path id="Vector" d="M20.9 1.90625H4.09995C2.77995 1.90625 1.69995 2.98625 1.69995 4.30625V21.1063C1.69995 22.4275 2.77995 23.5063 4.09995 23.5063H20.9C22.22 23.5063 23.3 22.4275 23.3 21.1063V4.30625C23.3 2.98625 22.22 1.90625 20.9 1.90625ZM12.4808 19.3339C14.2434 19.3335 15.9337 18.6331 17.18 17.3866C18.4262 16.1401 19.1264 14.4497 19.1264 12.6871C19.1264 12.2815 19.0748 11.8903 19.0028 11.5063H20.9V20.1655C20.9 20.2745 20.8784 20.3825 20.8366 20.4831C20.7947 20.5838 20.7334 20.6753 20.6562 20.7522C20.5789 20.8291 20.4872 20.8901 20.3863 20.9315C20.2854 20.9729 20.1774 20.9939 20.0684 20.9935H4.93155C4.82251 20.9939 4.71446 20.9729 4.61358 20.9315C4.51271 20.8901 4.42101 20.8291 4.34374 20.7522C4.26647 20.6753 4.20516 20.5838 4.16332 20.4831C4.12149 20.3825 4.09995 20.2745 4.09995 20.1655V11.5063H5.95875C5.88555 11.8903 5.83395 12.2815 5.83395 12.6871C5.83427 14.4498 6.53466 16.1402 7.78111 17.3867C9.02755 18.6331 10.718 19.3335 12.4808 19.3339ZM8.32755 12.6871C8.32755 12.1416 8.43498 11.6016 8.64369 11.0977C8.85241 10.5938 9.15834 10.136 9.544 9.75029C9.92966 9.36463 10.3875 9.05871 10.8914 8.84999C11.3953 8.64128 11.9353 8.53385 12.4808 8.53385C13.0262 8.53385 13.5662 8.64128 14.0701 8.84999C14.574 9.05871 15.0318 9.36463 15.4175 9.75029C15.8032 10.136 16.1091 10.5938 16.3178 11.0977C16.5265 11.6016 16.634 12.1416 16.634 12.6871C16.634 13.7885 16.1964 14.8449 15.4175 15.6238C14.6386 16.4027 13.5822 16.8403 12.4808 16.8403C11.3793 16.8403 10.3229 16.4027 9.544 15.6238C8.76512 14.8449 8.32755 13.7885 8.32755 12.6871ZM20.0684 7.90625H18.1304C17.9103 7.90562 17.6995 7.81792 17.5439 7.66233C17.3883 7.50674 17.3006 7.29589 17.3 7.07585V5.13545C17.3 4.67705 17.672 4.30625 18.1292 4.30625H20.0672C20.528 4.30625 20.9 4.67705 20.9 5.13545V7.07465C20.9 7.53185 20.528 7.90625 20.0684 7.90625Z" fill="white"/>
</g>
</svg>
