<svg width="60" height="60" viewBox="0 0 60 60" fill="none" xmlns="http://www.w3.org/2000/svg">
<g id="special fetures" clip-path="url(#clip0_1693_11543)">
<path id="Vector" d="M34.6713 42.5352C34.6714 40.4838 35.2072 38.468 36.2258 36.6873C37.2444 34.9067 38.7103 33.4229 40.4785 32.3829C42.2467 31.3428 44.2559 30.7826 46.3071 30.7577C48.3584 30.7328 50.3806 31.244 52.1735 32.2407C53.9665 33.2374 55.4681 34.6852 56.5296 36.4405C57.5912 38.1959 58.1759 40.1981 58.2259 42.2489C58.2759 44.2997 57.7894 46.3279 56.8146 48.133C55.8399 49.938 54.4106 51.4571 52.6683 52.54V58.2123L46.12 54.3094C43.0544 54.2235 40.1432 52.9453 38.0052 50.7466C35.8673 48.5478 34.6712 45.602 34.6711 42.5352H34.6713Z" fill="#FF6666"/>
<path id="Vector_2" d="M46.4503 30.7559C45.8709 30.7559 45.2922 30.7983 44.719 30.8828C47.1046 31.2375 49.3239 32.316 51.077 33.9724C52.8301 35.6288 54.0325 37.7834 54.5218 40.1451C55.0111 42.5068 54.7637 44.9618 53.813 47.1784C52.8624 49.395 51.2543 51.2664 49.2059 52.5397V56.1483L52.6685 58.212V52.5397C54.8429 51.1881 56.5177 49.1649 57.4394 46.7763C58.3611 44.3878 58.4796 41.764 57.7768 39.3021C57.0741 36.8403 55.5884 34.6744 53.5447 33.1323C51.501 31.5902 49.0105 30.756 46.4503 30.7559Z" fill="#FF4E4E"/>
<path id="Vector_3" d="M14.3457 16.7055C14.3459 13.9498 15.0658 11.242 16.434 8.85009C17.8023 6.45815 19.7715 4.46502 22.1468 3.06798C24.522 1.67094 27.2209 0.918436 29.9764 0.884957C32.7318 0.851478 35.4482 1.53818 37.8567 2.8771C40.2652 4.21601 42.2822 6.16071 43.7082 8.5187C45.1342 10.8767 45.9196 13.5662 45.9868 16.321C46.054 19.0758 45.4005 21.8004 44.0912 24.2251C42.7818 26.6498 40.8619 28.6905 38.5215 30.1452V37.7648L29.725 32.5219C25.607 32.4064 21.6964 30.6894 18.8245 27.7359C15.9526 24.7824 14.3458 20.8251 14.3457 16.7055Z" fill="#63EA86"/>
<path id="Vector_4" d="M30.1684 0.882812C29.59 0.88303 29.0121 0.914624 28.4371 0.977457C31.7083 1.33776 34.7858 2.70899 37.2411 4.90027C39.6964 7.09155 41.4075 9.99384 42.1361 13.2031C42.8646 16.4124 42.5745 19.769 41.306 22.8057C40.0375 25.8424 37.8538 28.408 35.0589 30.1454V35.7013L38.5215 37.7651V30.1454C41.4423 28.3298 43.6922 25.612 44.9303 22.4034C46.1685 19.1948 46.3276 15.6702 45.3836 12.3631C44.4396 9.05603 42.4439 6.14652 39.6985 4.07506C36.9531 2.0036 33.6076 0.882971 30.1684 0.882812Z" fill="#3CE568"/>
<path id="Vector_5" d="M31.3364 37.9345C31.3362 35.2812 30.6431 32.674 29.3257 30.3708C28.0082 28.0677 26.1122 26.1485 23.8251 24.8033C21.5381 23.4582 18.9394 22.7336 16.2862 22.7013C13.6331 22.6691 11.0176 23.3302 8.6985 24.6194C6.37942 25.9086 4.43724 27.7811 3.06419 30.0515C1.69113 32.3219 0.934829 34.9116 0.870131 37.5641C0.805434 40.2167 1.43459 42.8401 2.69532 45.1748C3.95605 47.5094 5.80464 49.4744 8.0581 50.8751V58.2118L16.528 53.1636C20.4931 53.0525 24.2585 51.3992 27.0239 48.5554C29.7892 45.7115 31.3363 41.9012 31.3364 37.9345Z" fill="#66C1FF"/>
<path id="Vector_6" d="M16.1011 22.7002C15.5227 22.7005 14.9446 22.7333 14.3698 22.7986C18.1984 23.2368 21.7187 25.1094 24.2217 28.0394C26.7247 30.9695 28.0244 34.7391 27.859 38.5891C27.6936 42.4391 26.0755 46.0834 23.3305 48.788C20.5854 51.4926 16.9175 53.0565 13.0655 53.1647L8.05823 56.1492V58.2129L16.5281 53.1647C20.5293 53.0513 24.3252 51.3677 27.0951 48.478C29.865 45.5882 31.3863 41.7245 31.3302 37.722C31.2741 33.7195 29.6451 29.8999 26.7953 27.089C23.9456 24.278 20.104 22.7014 16.1011 22.7002Z" fill="#4EB7FF"/>
<path id="Vector_7" d="M21.7999 39.7066C21.7738 39.561 21.7107 39.4246 21.6166 39.3105L16.8867 29.0879C16.8173 28.9379 16.7065 28.811 16.5673 28.722C16.428 28.633 16.2663 28.5858 16.1011 28.5858C15.9359 28.5858 15.7741 28.633 15.6349 28.722C15.4957 28.811 15.3849 28.9379 15.3155 29.0879L10.5857 39.3105C10.4916 39.4246 10.4285 39.561 10.4024 39.7066L8.64663 43.5014C8.55192 43.7095 8.54338 43.9466 8.62289 44.161C8.7024 44.3754 8.86349 44.5496 9.07099 44.6456C9.2785 44.7416 9.51557 44.7516 9.73044 44.6735C9.94531 44.5953 10.1205 44.4353 10.2178 44.2284L11.8379 40.7269H20.3643L21.9844 44.2284C22.0317 44.3323 22.0991 44.4258 22.1826 44.5035C22.2662 44.5813 22.3643 44.6417 22.4713 44.6814C22.5783 44.7211 22.6921 44.7393 22.8062 44.7348C22.9202 44.7303 23.0323 44.7034 23.1358 44.6554C23.2394 44.6075 23.3325 44.5396 23.4097 44.4555C23.487 44.3715 23.5468 44.273 23.5858 44.1657C23.6248 44.0585 23.6423 43.9445 23.6371 43.8305C23.6319 43.7165 23.6042 43.6046 23.5556 43.5014L21.7999 39.7066ZM12.639 38.9956L16.1011 31.5129L19.5633 38.9956H12.639ZM36.8358 10.3791H38.6075C38.8371 10.3791 39.0573 10.2879 39.2196 10.1256C39.382 9.96323 39.4732 9.74304 39.4732 9.51346C39.4732 9.28388 39.382 9.06369 39.2196 8.90135C39.0573 8.73901 38.8371 8.64781 38.6075 8.64781H33.3332C33.1036 8.64781 32.8834 8.73901 32.7211 8.90135C32.5588 9.06369 32.4676 9.28388 32.4676 9.51346C32.4676 9.74304 32.5588 9.96323 32.7211 10.1256C32.8834 10.2879 33.1036 10.3791 33.3332 10.3791H35.1045V14.2818H30.7122C31.0614 13.7247 31.2549 13.0842 31.2726 12.4269C31.2903 11.7697 31.1316 11.1197 30.813 10.5446C30.4944 9.96942 30.0276 9.49015 29.461 9.15658C28.8944 8.82301 28.2488 8.64733 27.5913 8.64781H23.8634C23.6338 8.64781 23.4136 8.73901 23.2512 8.90135C23.0889 9.06369 22.9977 9.28388 22.9977 9.51346C22.9977 9.74304 23.0889 9.96323 23.2512 10.1256C23.4136 10.2879 23.6338 10.3791 23.8634 10.3791H27.5913C28.1088 10.3791 28.6052 10.5847 28.9711 10.9506C29.3371 11.3166 29.5426 11.8129 29.5426 12.3305C29.5426 12.848 29.3371 13.3443 28.9711 13.7103C28.6052 14.0762 28.1088 14.2818 27.5913 14.2818H23.8634C23.6338 14.2818 23.4136 14.373 23.2512 14.5353C23.0889 14.6977 22.9977 14.9179 22.9977 15.1474C22.9977 15.377 23.0889 15.5972 23.2512 15.7596C23.4136 15.9219 23.6338 16.0131 23.8634 16.0131H27.5286C28.6154 16.0131 29.5215 16.8677 29.5487 17.9181C29.5556 18.1794 29.5102 18.4395 29.415 18.6829C29.3198 18.9263 29.1768 19.1482 28.9944 19.3355C28.812 19.5228 28.594 19.6717 28.3532 19.7733C28.1124 19.8749 27.8536 19.9273 27.5922 19.9273C27.5653 19.9273 27.5384 19.9286 27.5114 19.9311C26.5632 20.0201 25.6071 19.8946 24.714 19.5638C23.8209 19.233 23.0137 18.7054 22.3522 18.0202C22.2735 17.9372 22.1792 17.8706 22.0746 17.8242C21.97 17.7778 21.8573 17.7527 21.743 17.7501C21.6286 17.7476 21.5149 17.7677 21.4083 17.8094C21.3018 17.8511 21.2046 17.9134 21.1223 17.9929C21.0401 18.0724 20.9744 18.1673 20.929 18.2724C20.8837 18.3774 20.8596 18.4903 20.8581 18.6047C20.8567 18.7191 20.8779 18.8326 20.9206 18.9387C20.9633 19.0448 21.0266 19.1414 21.1069 19.2229C21.8613 20.0045 22.7656 20.6257 23.7658 21.0496C24.7659 21.4734 25.8413 21.691 26.9275 21.6894C27.1636 21.6894 27.3995 21.6792 27.634 21.6584C28.123 21.6529 28.606 21.5501 29.0549 21.3562C29.5038 21.1623 29.9096 20.8811 30.2488 20.5289C30.588 20.1767 30.8538 19.7605 31.0307 19.3046C31.2077 18.8488 31.2921 18.3623 31.2793 17.8734C31.2616 17.212 31.0616 16.5682 30.7014 16.0131H35.1047V20.7813C35.1047 21.0109 35.1959 21.2311 35.3582 21.3934C35.5205 21.5558 35.7407 21.647 35.9703 21.647C36.1999 21.647 36.4201 21.5558 36.5824 21.3934C36.7448 21.2311 36.836 21.0109 36.836 20.7813L36.8358 10.3791ZM46.4508 29.8908C43.9339 29.8889 41.4739 30.6398 39.3871 32.047V30.6184C41.6897 29.1024 43.5785 27.0366 44.8826 24.6077C46.1868 22.1788 46.8654 19.4632 46.8571 16.7063C46.8571 7.50354 39.3706 0.0166016 30.1685 0.0166016C20.9664 0.0166016 13.48 7.50354 13.48 16.7063C13.4773 18.4824 13.7594 20.2474 14.3155 21.9341C6.27464 22.8254 7.19932e-05 29.661 7.19932e-05 37.9355C-0.00789418 40.5924 0.645362 43.2095 1.90097 45.5511C3.15658 47.8926 4.97507 49.8849 7.19257 51.3484V58.213C7.19258 58.366 7.23313 58.5162 7.31008 58.6484C7.38703 58.7806 7.49764 58.8901 7.63064 58.9656C7.76365 59.0412 7.9143 59.0802 8.06727 59.0786C8.22023 59.077 8.37004 59.0349 8.50144 58.9565L16.7803 54.0221C19.0988 53.9238 21.3686 53.3256 23.4344 52.2684C25.5002 51.2113 27.3131 49.7202 28.749 47.8972C30.1849 46.0742 31.2099 43.9624 31.7537 41.7064C32.2975 39.4505 32.3474 37.1037 31.8998 34.8266L35.1864 36.785C34.225 38.669 33.7515 40.764 33.8092 42.8783C33.8668 44.9926 34.4539 47.0587 35.5165 48.8875C36.5792 50.7162 38.0835 52.2493 39.8919 53.3463C41.7002 54.4434 43.7548 55.0693 45.8677 55.167L52.2252 58.957C52.3566 59.0353 52.5064 59.0774 52.6594 59.079C52.8124 59.0806 52.963 59.0417 53.096 58.9661C53.229 58.8905 53.3396 58.7811 53.4166 58.6489C53.4935 58.5167 53.5341 58.3664 53.5341 58.2135V53.0107C55.7762 51.4943 57.4726 49.2985 58.3738 46.7462C59.275 44.1939 59.3334 41.4198 58.5405 38.8318C57.7476 36.2438 56.1452 33.9785 53.969 32.369C51.7928 30.7595 49.1575 29.8908 46.4508 29.8906V29.8908ZM26.3937 47.9632C23.7914 50.6465 20.2411 52.2033 16.5043 52.2995C16.3564 52.3036 16.212 52.3455 16.0849 52.4212L8.92387 56.6895V50.8762C8.92389 50.7292 8.88644 50.5846 8.81505 50.456C8.74366 50.3274 8.64069 50.2192 8.51586 50.1415C5.9891 48.5715 4.01183 46.256 2.85686 43.5146C1.70189 40.7732 1.42614 37.7409 2.06766 34.8361C2.70919 31.9313 4.23636 29.2971 6.43848 27.2971C8.6406 25.2971 11.4091 24.0298 14.3621 23.67C17.315 23.3102 20.3069 23.8756 22.9248 25.2883C25.5428 26.7011 27.6578 28.8914 28.978 31.5572C30.2983 34.2229 30.7588 37.2327 30.2959 40.1713C29.833 43.1099 28.4695 45.8324 26.3937 47.9632ZM31.2251 32.4092C30.0894 29.3132 28.0321 26.6397 25.3303 24.749C22.6284 22.8583 19.412 21.8412 16.1143 21.8348C15.5141 20.1917 15.2084 18.4556 15.2113 16.7063C15.2113 8.45818 21.9211 1.7479 30.1685 1.7479C38.4159 1.7479 45.1258 8.45818 45.1258 16.7063C45.1331 19.2511 44.4878 21.7552 43.2514 23.9795C42.015 26.2038 40.2289 28.0738 38.0638 29.411C37.939 29.4888 37.836 29.597 37.7646 29.7256C37.6933 29.8541 37.6558 29.9987 37.6558 30.1458V36.2411L36.7986 35.7303L36.7969 35.7291L36.7949 35.728L31.2251 32.4092ZM52.2109 51.8058C52.0861 51.8836 51.9831 51.9918 51.9117 52.1204C51.8403 52.249 51.8028 52.3936 51.8028 52.5407V56.6897L46.5639 53.5666C46.4368 53.4908 46.2924 53.4489 46.1445 53.4448C44.3127 53.3932 42.5234 52.8813 40.9415 51.9562C39.3597 51.0311 38.0362 49.7227 37.0931 48.1515C36.15 46.5803 35.6177 44.797 35.5452 42.9659C35.4727 41.1348 35.8624 39.315 36.6783 37.6742L38.0783 38.5083C38.2097 38.5866 38.3596 38.6287 38.5125 38.6303C38.6655 38.6318 38.8161 38.5929 38.9491 38.5173C39.0821 38.4417 39.1927 38.3323 39.2696 38.2001C39.3466 38.0678 39.3871 37.9176 39.3871 37.7647V34.2186C40.5313 33.2468 41.8636 32.5216 43.3008 32.0882C44.7381 31.6548 46.2493 31.5226 47.7399 31.6998C49.2306 31.877 50.6686 32.3599 51.9642 33.1182C53.2597 33.8765 54.3849 34.8939 55.2693 36.1069C56.1537 37.3198 56.7784 38.7022 57.1043 40.1676C57.4301 41.6329 57.4501 43.1497 57.1631 44.6232C56.876 46.0966 56.2881 47.495 55.436 48.7309C54.5839 49.9668 53.486 51.0136 52.2109 51.8058ZM51.8044 37.8049H50.0052C49.9382 37.797 49.8704 37.797 49.8034 37.8049H47.3161V36.3505C47.3161 36.1209 47.2249 35.9008 47.0625 35.7384C46.9002 35.5761 46.68 35.4849 46.4504 35.4849C46.2208 35.4849 46.0007 35.5761 45.8383 35.7384C45.676 35.9008 45.5848 36.1209 45.5848 36.3505V37.8049H41.6721C41.4425 37.8049 41.2223 37.8961 41.0599 38.0585C40.8976 38.2208 40.8064 38.441 40.8064 38.6706C40.8064 38.9002 40.8976 39.1204 41.0599 39.2827C41.2223 39.445 41.4425 39.5362 41.6721 39.5362H48.5814C47.8406 41.0511 46.8202 42.4123 45.5739 43.5482C45.0045 42.966 44.5031 42.3209 44.0796 41.6253C43.9602 41.4292 43.7679 41.2885 43.5448 41.2342C43.3217 41.18 43.0862 41.2165 42.8901 41.3359C42.694 41.4552 42.5533 41.6476 42.499 41.8707C42.4447 42.0937 42.4813 42.3293 42.6006 42.5254C43.0603 43.2815 43.5992 43.9865 44.2082 44.6286C43.4024 45.1793 42.5377 45.6385 41.63 45.9974C41.5236 46.0387 41.4263 46.1007 41.3439 46.1798C41.2615 46.2588 41.1956 46.3534 41.1499 46.458C41.1042 46.5627 41.0796 46.6754 41.0777 46.7895C41.0757 46.9037 41.0963 47.0172 41.1384 47.1233C41.1805 47.2295 41.2431 47.3263 41.3227 47.4081C41.4024 47.49 41.4974 47.5553 41.6024 47.6002C41.7074 47.6452 41.8202 47.6689 41.9344 47.6701C42.0486 47.6712 42.1619 47.6498 42.2677 47.607C43.421 47.1503 44.5123 46.5507 45.5161 45.8221C46.7992 46.8381 48.2706 47.5902 49.8455 48.0352C50.0659 48.0966 50.3016 48.0682 50.5012 47.9563C50.7007 47.8444 50.8479 47.6581 50.9104 47.438C50.973 47.2179 50.9459 46.9821 50.8351 46.7819C50.7242 46.5818 50.5387 46.4336 50.319 46.3699C49.0844 46.0212 47.9227 45.4532 46.8894 44.6931C48.4336 43.2424 49.659 41.4862 50.4874 39.5361H51.8044C52.034 39.5361 52.2542 39.4449 52.4165 39.2826C52.5789 39.1202 52.6701 38.9001 52.6701 38.6705C52.6701 38.4409 52.5789 38.2207 52.4165 38.0584C52.2542 37.896 52.034 37.8048 51.8044 37.8048V37.8049Z" fill="#272A33"/>
</g>
<defs>
<clipPath id="clip0_1693_11543">
<rect width="59.095" height="59.095" fill="white"/>
</clipPath>
</defs>
</svg>
