<svg width="25" height="25" viewBox="0 0 25 25" fill="none" xmlns="http://www.w3.org/2000/svg">
<g id="mdi:linkedin">
<path id="Vector" d="M19.5 3.70605C20.0304 3.70605 20.5391 3.91677 20.9142 4.29184C21.2893 4.66691 21.5 5.17562 21.5 5.70605V19.7061C21.5 20.2365 21.2893 20.7452 20.9142 21.1203C20.5391 21.4953 20.0304 21.7061 19.5 21.7061H5.5C4.96957 21.7061 4.46086 21.4953 4.08579 21.1203C3.71071 20.7452 3.5 20.2365 3.5 19.7061V5.70605C3.5 5.17562 3.71071 4.66691 4.08579 4.29184C4.46086 3.91677 4.96957 3.70605 5.5 3.70605H19.5ZM19 19.2061V13.9061C19 13.0414 18.6565 12.2123 18.0452 11.6009C17.4338 10.9895 16.6046 10.6461 15.74 10.6461C14.89 10.6461 13.9 11.1661 13.42 11.9461V10.8361H10.63V19.2061H13.42V14.2761C13.42 13.5061 14.04 12.8761 14.81 12.8761C15.1813 12.8761 15.5374 13.0236 15.7999 13.2861C16.0625 13.5487 16.21 13.9048 16.21 14.2761V19.2061H19ZM7.38 9.26606C7.82556 9.26606 8.25288 9.08906 8.56794 8.77399C8.883 8.45893 9.06 8.03162 9.06 7.58605C9.06 6.65605 8.31 5.89605 7.38 5.89605C6.93178 5.89605 6.50193 6.07411 6.18499 6.39104C5.86805 6.70798 5.69 7.13784 5.69 7.58605C5.69 8.51605 6.45 9.26606 7.38 9.26606ZM8.77 19.2061V10.8361H6V19.2061H8.77Z" fill="white"/>
</g>
</svg>
