<svg width="24" height="24" viewBox="0 0 24 24" fill="none" xmlns="http://www.w3.org/2000/svg">
<g id="logout">
<path id="Vector" fill-rule="evenodd" clip-rule="evenodd" d="M8 4C8 3.44772 8.44772 3 9 3H21C21.5523 3 22 3.44772 22 4V20C22 20.5523 21.5523 21 21 21H9C8.44772 21 8 20.5523 8 20V17C8 16.4477 8.44772 16 9 16C9.55228 16 10 16.4477 10 17V19H20V5H10V7C10 7.55228 9.55228 8 9 8C8.44772 8 8 7.55228 8 7V4ZM7.20711 7.79289C7.59763 8.18342 7.59763 8.81658 7.20711 9.20711L5.41421 11H15C15.5523 11 16 11.4477 16 12C16 12.5523 15.5523 13 15 13H5.41421L7.20711 14.7929C7.59763 15.1834 7.59763 15.8166 7.20711 16.2071C6.81658 16.5976 6.18342 16.5976 5.79289 16.2071L2.29289 12.7071C1.90237 12.3166 1.90237 11.6834 2.29289 11.2929L5.79289 7.79289C6.18342 7.40237 6.81658 7.40237 7.20711 7.79289Z" fill="url(#paint0_linear_1375_6743)"/>
</g>
<defs>
<linearGradient id="paint0_linear_1375_6743" x1="12" y1="3" x2="12" y2="21" gradientUnits="userSpaceOnUse">
<stop stop-color="#F857A6"/>
<stop offset="1" stop-color="#FF585A"/>
</linearGradient>
</defs>
</svg>
