<svg width="50" height="50" viewBox="0 0 50 50" fill="none" xmlns="http://www.w3.org/2000/svg">
<g id="Target" clip-path="url(#clip0_2376_4607)">
<path id="Vector" d="M25 0C11.199 0 0 11.199 0 25C0 38.801 11.199 50 25 50C38.801 50 50 38.801 50 25C50 11.199 38.801 0 25 0ZM25 1.04167C38.2375 1.04167 48.9583 11.7615 48.9583 25C48.9583 38.2385 38.2375 48.9583 25 48.9583C11.7625 48.9583 1.04167 38.2385 1.04167 25C1.04167 11.7615 11.7625 1.04167 25 1.04167ZM39.0865 8.33333V8.33542C39.0698 8.33462 39.0531 8.33462 39.0365 8.33542C38.9076 8.34125 38.7855 8.3947 38.6937 8.48542L35.5687 11.6104C35.5004 11.6789 35.4525 11.7651 35.4305 11.8593C35.4084 11.9535 35.413 12.052 35.4437 12.1437L35.8625 13.401L32.5917 16.6719C30.272 14.5232 27.2265 13.3297 24.0646 13.3302C17.1083 13.3302 11.4583 18.9792 11.4583 25.9354C11.4583 32.8917 17.1083 38.5417 24.0646 38.5417C31.0198 38.5417 36.6719 32.8917 36.6719 25.9354C36.6719 22.6448 35.3969 19.6552 33.3281 17.4094L36.599 14.1385L37.8562 14.5573C37.9481 14.5879 38.0466 14.5924 38.1408 14.5701C38.235 14.5478 38.3212 14.4997 38.3896 14.4312L41.5146 11.3062C41.5776 11.2435 41.6235 11.1656 41.6479 11.08C41.6723 10.9944 41.6744 10.904 41.6539 10.8174C41.6334 10.7308 41.5911 10.6509 41.531 10.5853C41.4708 10.5197 41.3949 10.4706 41.3104 10.4427L39.9948 10.0052L39.5573 8.68958C39.5241 8.58953 39.4613 8.50191 39.3772 8.4383C39.2932 8.37469 39.1918 8.33809 39.0865 8.33333ZM38.8344 9.82083L39.0885 10.5833C39.1141 10.6603 39.1572 10.7302 39.2146 10.7875C39.2719 10.8448 39.3418 10.888 39.4187 10.9135L40.1813 11.1677L37.8802 13.4688L36.8708 13.1323L36.5333 12.1219L38.8354 9.81979L38.8344 9.82083ZM24.0635 14.3729C26.9504 14.3711 29.7325 15.4541 31.8583 17.4073L30.3667 18.899C28.6351 17.3446 26.3914 16.4831 24.0646 16.4792C21.5561 16.4792 19.1503 17.4757 17.3765 19.2494C15.6027 21.0232 14.6062 23.429 14.6062 25.9375C14.6065 28.4458 15.6031 30.8513 17.3769 32.6249C19.1507 34.3984 21.5563 35.3948 24.0646 35.3948C26.5729 35.3948 28.9785 34.3984 30.7523 32.6249C32.526 30.8513 33.5226 28.4458 33.5229 25.9375C33.5184 23.6114 32.657 21.3685 31.1031 19.6375L32.5948 18.1437C34.5483 20.269 35.6317 23.0508 35.6302 25.9375C35.6312 27.4565 35.3327 28.9609 34.7518 30.3644C34.1709 31.768 33.319 33.0433 32.2448 34.1174C31.1706 35.1915 29.8952 36.0433 28.4916 36.624C27.088 37.2048 25.5836 37.5032 24.0646 37.5021C22.5456 37.5032 21.0413 37.2048 19.6377 36.624C18.2341 36.0432 16.9588 35.1914 15.8847 34.1173C14.8107 33.0433 13.9589 31.7679 13.3781 30.3644C12.7973 28.9608 12.4989 27.4565 12.5 25.9375C12.4992 24.4187 12.7978 22.9146 13.3787 21.5113C13.9596 20.1079 14.8114 18.8329 15.8855 17.759C16.9595 16.6851 18.2348 15.8335 19.6382 15.2529C21.0416 14.6722 22.5458 14.3739 24.0646 14.375L24.0635 14.3729ZM24.0635 18.5812C25.8342 18.584 27.5444 19.2254 28.8802 20.3875L27.3927 21.875C26.4544 21.1049 25.2784 20.6835 24.0646 20.6823C23.3746 20.6824 22.6914 20.8185 22.054 21.0826C21.4166 21.3468 20.8374 21.7339 20.3496 22.2219C19.8618 22.7099 19.4749 23.2892 19.211 23.9267C18.9471 24.5643 18.8113 25.2475 18.8115 25.9375C18.8117 27.3306 19.3653 28.6666 20.3504 29.6517C21.3355 30.6368 22.6715 31.1903 24.0646 31.1906C25.4579 31.1906 26.7942 30.6372 27.7795 29.6521C28.7648 28.667 29.3185 27.3308 29.3187 25.9375C29.318 24.7248 28.8977 23.5496 28.1292 22.6115L29.6208 21.1198C30.7809 22.4568 31.42 24.1673 31.4208 25.9375C31.4203 27.8881 30.645 29.7587 29.2655 31.1378C27.886 32.5169 26.0152 33.2917 24.0646 33.2917C22.1138 33.2919 20.2427 32.5173 18.863 31.1382C17.4833 29.759 16.7078 27.8883 16.7073 25.9375C16.7073 24.9714 16.8976 24.0147 17.2674 23.1221C17.6371 22.2296 18.1791 21.4186 18.8623 20.7355C19.5455 20.0524 20.3565 19.5105 21.2491 19.1409C22.1418 18.7713 23.0974 18.5811 24.0635 18.5812ZM24.0635 22.7844C24.7198 22.7858 25.3592 22.9919 25.8927 23.374L24.3281 24.9385C24.2417 24.9156 24.1583 24.8865 24.0646 24.8865C23.8568 24.8867 23.6537 24.9485 23.481 25.064C23.3084 25.1796 23.1738 25.3438 23.0944 25.5358C23.015 25.7278 22.9942 25.939 23.0348 26.1428C23.0754 26.3466 23.1755 26.5338 23.3224 26.6807C23.4694 26.8276 23.6565 26.9277 23.8603 26.9683C24.0641 27.0089 24.2754 26.9882 24.4674 26.9087C24.6594 26.8293 24.8235 26.6948 24.9391 26.5221C25.0547 26.3494 25.1165 26.1463 25.1167 25.9385C25.1167 25.8458 25.0854 25.7625 25.0635 25.6781L26.6292 24.1094C27.0107 24.6427 27.2164 25.2817 27.2177 25.9375C27.2174 26.7736 26.8851 27.5753 26.2938 28.1664C25.7025 28.7575 24.9007 29.0896 24.0646 29.0896C23.2287 29.0893 22.4271 28.7571 21.836 28.1661C21.245 27.575 20.9128 26.7734 20.9125 25.9375C20.9125 25.1014 21.2446 24.2996 21.8357 23.7083C22.4268 23.117 23.2275 22.7846 24.0635 22.7844Z" fill="#3D9AE2"/>
</g>
<defs>
<clipPath id="clip0_2376_4607">
<rect width="50" height="50" fill="white"/>
</clipPath>
</defs>
</svg>
