<svg width="32" height="32" viewBox="0 0 32 32" fill="none" xmlns="http://www.w3.org/2000/svg">
<g id="notification Component ">
<mask id="mask0_1191_3507" style="mask-type:alpha" maskUnits="userSpaceOnUse" x="0" y="0" width="32" height="32">
<rect id="Bounding box" width="32" height="32" fill="#D9D9D9"/>
</mask>
<g mask="url(#mask0_1191_3507)">
<path id="notifications" d="M6 24.9739V23.6405H8.66667V13.6405C8.66667 11.8645 9.23077 10.3025 10.359 8.95462C11.4872 7.60675 12.9231 6.76188 14.6667 6.41999V5.48665C14.6667 5.10203 14.7927 4.78365 15.0449 4.53152C15.297 4.27939 15.6154 4.15332 16 4.15332C16.3846 4.15332 16.703 4.27939 16.9551 4.53152C17.2073 4.78365 17.3333 5.10203 17.3333 5.48665V6.41999C19.0769 6.76188 20.5128 7.60675 21.641 8.95462C22.7692 10.3025 23.3333 11.8645 23.3333 13.6405V23.6405H26V24.9739H6ZM16 28.82C15.4205 28.82 14.9167 28.6145 14.4885 28.2033C14.0603 27.7922 13.8462 27.2798 13.8462 26.6662H18.1538C18.1538 27.2798 17.9483 27.7922 17.5372 28.2033C17.1261 28.6144 16.6137 28.82 16 28.82ZM10 23.6405H22V13.6405C22 11.9687 21.4179 10.5507 20.2538 9.38662C19.0897 8.22255 17.6718 7.64052 16 7.64052C14.3282 7.64052 12.9103 8.22256 11.7462 9.38665C10.5821 10.5508 10 11.9687 10 13.6405V23.6405Z" fill="#4D4D4D"/>
</g>
</g>
</svg>
