<svg width="60" height="60" viewBox="0 0 60 60" fill="none" xmlns="http://www.w3.org/2000/svg">
<g id="special fetures" clip-path="url(#clip0_1305_3368)">
<g id="30. Art tutorial">
<path id="Vector" d="M4.19347 2.46191H55.901C56.5541 2.46191 57.1804 2.72133 57.6421 3.18309C58.1039 3.64486 58.3633 4.27115 58.3633 4.92418V36.9336H1.7312V4.92418C1.7312 4.27115 1.99062 3.64486 2.45238 3.18309C2.91415 2.72133 3.54043 2.46191 4.19347 2.46191Z" fill="#FFDBA0"/>
<path id="Vector_2" d="M1.7312 36.9346H58.3633V41.8591C58.3633 42.5121 58.1039 43.1384 57.6421 43.6002C57.1804 44.062 56.5541 44.3214 55.901 44.3214H4.19347C3.54043 44.3214 2.91415 44.062 2.45238 43.6002C1.99062 43.1384 1.7312 42.5121 1.7312 41.8591V36.9346Z" fill="#F6E3C4"/>
<path id="Vector_3" d="M58.3633 4.92418V34.4714H37.434C28.9446 34.4714 20.8028 31.0989 14.7999 25.096C8.79697 19.0931 5.42456 10.9513 5.42456 2.46191H55.901C56.554 2.46191 57.1803 2.72133 57.6421 3.18309C58.1038 3.64486 58.3633 4.27115 58.3633 4.92418Z" fill="#F6E3C4"/>
<path id="Vector_4" d="M58.3633 36.9346V41.8591H10.3491C9.04302 41.8591 7.79045 41.3403 6.86692 40.4167C5.94339 39.4932 5.42456 38.2406 5.42456 36.9346H58.3633Z" fill="#FFC567"/>
<path id="Vector_5" d="M30.0471 41.8587C29.7205 41.8587 29.4074 41.729 29.1765 41.4982C28.9456 41.2673 28.8159 40.9541 28.8159 40.6276C28.8159 40.3841 28.8881 40.1461 29.0234 39.9436C29.1587 39.7412 29.351 39.5834 29.5759 39.4902C29.8009 39.397 30.0484 39.3726 30.2872 39.4201C30.526 39.4676 30.7454 39.5849 30.9176 39.7571C31.0898 39.9293 31.207 40.1486 31.2545 40.3874C31.302 40.6263 31.2777 40.8738 31.1845 41.0988C31.0913 41.3237 30.9335 41.516 30.731 41.6513C30.5286 41.7865 30.2905 41.8587 30.0471 41.8587Z" fill="#425B72"/>
<path id="Vector_6" d="M34.9714 51.7081H25.1223L26.7597 44.3213H33.334L34.9714 51.7081Z" fill="#F6E3C4"/>
<path id="Vector_7" d="M21.4294 51.708H38.6652C38.9917 51.708 39.3049 51.8377 39.5358 52.0686C39.7667 52.2995 39.8964 52.6126 39.8964 52.9391V56.6325H20.1982V52.9391C20.1982 52.6126 20.3279 52.2995 20.5588 52.0686C20.7897 51.8377 21.1029 51.708 21.4294 51.708Z" fill="#F6E3C4"/>
<path id="Vector_8" d="M48.5143 30.7787H21.4294C21.1029 30.7787 20.7897 30.649 20.5588 30.4181C20.3279 30.1872 20.1982 29.8741 20.1982 29.5475C20.1982 29.221 20.3279 28.9079 20.5588 28.677C20.7897 28.4461 21.1029 28.3164 21.4294 28.3164H48.5143C48.8408 28.3164 49.1539 28.4461 49.3848 28.677C49.6157 28.9079 49.7454 29.221 49.7454 29.5475C49.7454 29.8741 49.6157 30.1872 49.3848 30.4181C49.1539 30.649 48.8408 30.7787 48.5143 30.7787Z" fill="#FFC567"/>
<path id="Vector_9" d="M25.1223 30.7784V28.3161C25.1223 27.9896 25.252 27.6764 25.4829 27.4456C25.7138 27.2147 26.0269 27.085 26.3534 27.085C26.68 27.085 26.9931 27.2147 27.224 27.4456C27.4549 27.6764 27.5846 27.9896 27.5846 28.3161V30.7784C27.5846 31.1049 27.4549 31.418 27.224 31.6489C26.9931 31.8798 26.68 32.0095 26.3534 32.0095C26.0269 32.0095 25.7138 31.8798 25.4829 31.6489C25.252 31.418 25.1223 31.1049 25.1223 30.7784Z" fill="#919191"/>
<path id="Vector_10" d="M11.5801 32.0095V27.085L16.5046 29.5472L11.5801 32.0095Z" fill="#DB5669"/>
<path id="Vector_11" d="M30.0469 23.3917C21.7491 23.3917 18.2896 14.3306 24.8762 10.1078C26.0875 9.34852 27.4508 8.86458 28.8698 8.69014C30.2887 8.5157 31.7286 8.65501 33.0878 9.09824C32.66 9.82214 32.492 10.6704 32.6116 11.5027C32.7313 12.335 33.1313 13.1016 33.7456 13.6757C34.36 14.2498 35.1518 14.5972 35.9903 14.6603C36.8288 14.7234 37.6637 14.4985 38.3571 14.0228C39.896 18.4672 35.9687 23.3917 30.0469 23.3917Z" fill="#A87E6B"/>
<path id="Vector_12" d="M37.6802 19.4398C30.4289 24.155 20.6044 17.0637 24.8765 10.1078C26.0878 9.34852 27.4511 8.86458 28.8701 8.69014C30.289 8.5157 31.7289 8.65501 33.0881 9.09824C32.6603 9.82214 32.4923 10.6704 32.6119 11.5027C32.7315 12.335 33.1316 13.1016 33.7459 13.6757C34.3602 14.2498 35.1521 14.5972 35.9906 14.6603C36.8291 14.7234 37.664 14.4985 38.3574 14.0228C38.6474 14.9203 38.737 15.8705 38.62 16.8064C38.503 17.7423 38.1822 18.6412 37.6802 19.4398Z" fill="#BE927C"/>
<path id="Vector_13" d="M26.7109 12.6687C26.9428 12.4369 27.2572 12.3066 27.585 12.3066C27.9129 12.3066 28.2273 12.4369 28.4591 12.6687C28.691 12.9005 28.8212 13.215 28.8212 13.5428C28.8212 13.8707 28.691 14.1851 28.4591 14.4169C28.3444 14.5317 28.2081 14.6228 28.0581 14.6849C27.9081 14.747 27.7474 14.779 27.585 14.779C27.2572 14.779 26.9428 14.6487 26.7109 14.4169C26.5962 14.3021 26.5051 14.1659 26.443 14.0159C26.3809 13.8659 26.3489 13.7051 26.3489 13.5428C26.3489 13.215 26.4791 12.9005 26.7109 12.6687Z" fill="#F26674"/>
<path id="Vector_14" d="M26.3539 18.4671C26.1616 18.4667 25.9721 18.4213 25.8006 18.3344C25.629 18.2476 25.4802 18.1218 25.3661 17.9671C25.2519 17.8124 25.1755 17.6331 25.1431 17.4436C25.1107 17.2541 25.1231 17.0596 25.1794 16.8758C25.2356 16.6919 25.3342 16.5238 25.4671 16.3849C25.6 16.246 25.7636 16.1401 25.9448 16.0758C26.126 16.0115 26.3197 15.9905 26.5105 16.0145C26.7012 16.0386 26.8837 16.1069 27.0433 16.2142C27.2625 16.3615 27.4285 16.5753 27.5168 16.8242C27.6052 17.0731 27.6111 17.3437 27.5339 17.5963C27.4566 17.8488 27.3002 18.0698 27.0877 18.2266C26.8752 18.3834 26.6179 18.4677 26.3539 18.4671Z" fill="#FFDE76"/>
<path id="Vector_15" d="M30.047 20.93C29.8543 20.9315 29.6638 20.8877 29.4911 20.8021C29.3183 20.7166 29.1681 20.5916 29.0525 20.4374C28.9368 20.2831 28.859 20.1039 28.8253 19.9141C28.7917 19.7242 28.803 19.5292 28.8585 19.3446C28.914 19.1599 29.012 18.9909 29.1448 18.8511C29.2776 18.7113 29.4413 18.6047 29.6228 18.5397C29.8043 18.4748 29.9985 18.4534 30.1898 18.4772C30.3811 18.5011 30.5641 18.5695 30.7242 18.677C30.9425 18.8237 31.1081 19.0365 31.1967 19.2842C31.2853 19.5318 31.2923 19.8014 31.2166 20.0533C31.1409 20.3052 30.9865 20.5262 30.776 20.684C30.5655 20.8418 30.3101 20.928 30.047 20.93Z" fill="#82BCF4"/>
<path id="Vector_16" d="M33.7404 19.6986C33.5171 19.6997 33.2976 19.64 33.1056 19.526C32.9136 19.4119 32.7562 19.2477 32.6503 19.0511C32.5444 18.8544 32.494 18.6327 32.5045 18.4095C32.515 18.1864 32.586 17.9704 32.7099 17.7846C32.8338 17.5987 33.006 17.4501 33.2079 17.3546C33.4098 17.2591 33.6338 17.2203 33.8561 17.2424C34.0784 17.2645 34.2904 17.3466 34.4696 17.48C34.6487 17.6134 34.7882 17.793 34.8731 17.9996C34.9497 18.1861 34.9793 18.3886 34.9594 18.5893C34.9394 18.7899 34.8705 18.9826 34.7587 19.1504C34.6468 19.3181 34.4955 19.4559 34.3179 19.5515C34.1404 19.6471 33.9421 19.6976 33.7404 19.6986Z" fill="#B5E08C"/>
<path id="Vector_17" d="M34.43 49.2458H32.6326C32.0267 49.2454 31.4286 49.109 30.8824 48.8467C30.3362 48.5845 29.8558 48.203 29.4766 47.7305C29.0974 47.2579 28.829 46.7063 28.6913 46.1163C28.5535 45.5263 28.5499 44.9129 28.6806 44.3213H33.3343L34.43 49.2458ZM39.8963 52.9392V54.1703H25.1227C24.4696 54.1703 23.8433 53.9109 23.3816 53.4492C22.9198 52.9874 22.6604 52.3611 22.6604 51.7081H38.6651C38.9916 51.7081 39.3048 51.8378 39.5357 52.0687C39.7665 52.2996 39.8963 52.6127 39.8963 52.9392Z" fill="#FFC567"/>
<path id="Vector_18" d="M15.2735 28.9317L11.5801 30.7784V27.085L15.2735 28.9317Z" fill="#F26674"/>
<path id="Vector_19" d="M55.901 1.23145H4.1934C3.21385 1.23145 2.27442 1.62057 1.58177 2.31322C0.889125 3.00586 0.5 3.94529 0.5 4.92484L0.5 41.8588C0.5 42.8384 0.889125 43.7778 1.58177 44.4704C2.27442 45.1631 3.21385 45.5522 4.1934 45.5522H25.2334L24.1377 50.4767H21.4293C20.7762 50.4767 20.1499 50.7362 19.6882 51.1979C19.2264 51.6597 18.967 52.286 18.967 52.939V56.6324C18.967 56.9589 19.0967 57.2721 19.3276 57.503C19.5585 57.7338 19.8716 57.8635 20.1981 57.8635H39.8962C40.2228 57.8635 40.5359 57.7338 40.7668 57.503C40.9977 57.2721 41.1274 56.9589 41.1274 56.6324V52.939C41.1274 52.286 40.868 51.6597 40.4062 51.1979C39.9444 50.7362 39.3181 50.4767 38.6651 50.4767H35.9566L34.8609 45.5522H55.901C56.8805 45.5522 57.8199 45.1631 58.5126 44.4704C59.2052 43.7778 59.5944 42.8384 59.5944 41.8588V4.92484C59.5944 3.94529 59.2052 3.00586 58.5126 2.31322C57.8199 1.62057 56.8805 1.23145 55.901 1.23145ZM2.96226 4.92484C2.96226 4.59833 3.09197 4.28518 3.32285 4.0543C3.55374 3.82342 3.86688 3.69371 4.1934 3.69371H55.901C56.2275 3.69371 56.5406 3.82342 56.7715 4.0543C57.0024 4.28518 57.1321 4.59833 57.1321 4.92484V35.7032H2.96226V4.92484ZM38.6651 55.4013H21.4293V52.939H38.6651V55.4013ZM33.4328 50.4767H26.6616L27.745 45.5522H32.3494L33.4328 50.4767ZM57.1321 41.8588C57.1321 42.1853 57.0024 42.4985 56.7715 42.7294C56.5406 42.9602 56.2275 43.09 55.901 43.09H4.1934C3.86688 43.09 3.55374 42.9602 3.32285 42.7294C3.09197 42.4985 2.96226 42.1853 2.96226 41.8588V38.1654H57.1321V41.8588Z" fill="#FBA820"/>
<path id="Vector_20" d="M29.1727 41.5024C29.3164 41.6451 29.493 41.7502 29.687 41.8083C29.8809 41.8664 30.0862 41.8758 30.2847 41.8357C30.4832 41.7955 30.6686 41.707 30.8247 41.578C30.9808 41.449 31.1027 41.2835 31.1795 41.0961C31.302 40.7956 31.3009 40.4588 31.1764 40.1591C31.0519 39.8594 30.8141 39.6209 30.5147 39.4957C30.2517 39.3872 29.9593 39.3731 29.6872 39.4558C29.415 39.5385 29.1799 39.7129 29.0218 39.9494C28.8636 40.1858 28.7923 40.4698 28.8198 40.7529C28.8473 41.036 28.972 41.3008 29.1727 41.5024ZM48.5138 28.317H27.5846C27.5846 27.9905 27.4549 27.6773 27.224 27.4464C26.9931 27.2156 26.68 27.0858 26.3534 27.0858C26.0269 27.0858 25.7138 27.2156 25.4829 27.4464C25.252 27.6773 25.1223 27.9905 25.1223 28.317H21.4289C21.1024 28.317 20.7893 28.4467 20.5584 28.6776C20.3275 28.9085 20.1978 29.2216 20.1978 29.5481C20.1978 29.8746 20.3275 30.1878 20.5584 30.4187C20.7893 30.6495 21.1024 30.7792 21.4289 30.7792H25.1223C25.1223 31.1058 25.252 31.4189 25.4829 31.6498C25.7138 31.8807 26.0269 32.0104 26.3534 32.0104C26.68 32.0104 26.9931 31.8807 27.224 31.6498C27.4549 31.4189 27.5846 31.1058 27.5846 30.7792H48.5138C48.8403 30.7792 49.1535 30.6495 49.3844 30.4187C49.6152 30.1878 49.745 29.8746 49.745 29.5481C49.745 29.2216 49.6152 28.9085 49.3844 28.6776C49.1535 28.4467 48.8403 28.317 48.5138 28.317ZM17.0584 28.4524C11.7153 25.7808 11.703 25.5592 10.9027 25.9901C10.1025 26.421 10.3487 26.7904 10.3487 32.0104C10.3487 32.3369 10.4784 32.65 10.7093 32.8809C10.9402 33.1118 11.2533 33.2415 11.5799 33.2415C11.9984 33.2415 11.7399 33.3031 17.0584 30.6438C17.2601 30.5405 17.4293 30.3835 17.5475 30.1902C17.6656 29.9969 17.7282 29.7747 17.7282 29.5481C17.7282 29.3215 17.6656 29.0993 17.5475 28.906C17.4293 28.7127 17.2601 28.5557 17.0584 28.4524ZM12.811 30.0159V29.0803L13.7466 29.5481L12.811 30.0159ZM30.0468 24.6236C36.8304 24.6236 41.2748 18.8496 39.5266 13.6788C39.4652 13.4948 39.3612 13.328 39.2232 13.1918C39.0851 13.0556 38.9168 12.954 38.732 12.8952C38.5471 12.8364 38.3511 12.8221 38.1597 12.8534C37.9683 12.8847 37.787 12.9609 37.6306 13.0756C37.2631 13.3372 36.8308 13.4929 36.3809 13.5256C35.9309 13.5583 35.4806 13.4667 35.0792 13.2609C34.6777 13.0551 34.3405 12.7429 34.1044 12.3585C33.8683 11.9741 33.7423 11.5323 33.7402 11.0811C33.7402 9.84999 34.5897 9.6407 34.245 8.69273C34.1829 8.51457 34.0806 8.35308 33.9461 8.22073C33.8116 8.08838 33.6485 7.98871 33.4694 7.92943C27.0798 5.82419 20.1978 10.01 20.1978 16.0057C20.1978 20.7578 24.6175 24.6236 30.0468 24.6236ZM31.4011 9.9608C31.2087 10.7861 31.2325 11.6471 31.4703 12.4605C31.708 13.2739 32.1517 14.0122 32.7583 14.6039C33.3649 15.1957 34.1139 15.6209 34.933 15.8384C35.752 16.0559 36.6133 16.0584 37.4336 15.8456C37.5198 19.539 33.9249 22.1613 30.0468 22.1613C25.9718 22.1613 22.66 19.4036 22.66 16.0057C22.66 12.0783 26.969 9.25905 31.4011 9.9608Z" fill="#FBA820"/>
<path id="Vector_21" d="M27.1172 14.6756C27.3616 14.776 27.6319 14.7951 27.888 14.7301C28.1441 14.6651 28.3725 14.5194 28.5394 14.3145C28.7063 14.1097 28.8029 13.8566 28.8149 13.5927C28.8269 13.3287 28.7536 13.0679 28.606 12.8488C28.4583 12.6297 28.2441 12.4639 27.9949 12.3759C27.7457 12.2879 27.4749 12.2825 27.2224 12.3603C26.9699 12.4381 26.7491 12.5951 26.5927 12.8081C26.4363 13.0211 26.3526 13.2787 26.3539 13.5429C26.3551 13.786 26.4283 14.0233 26.5641 14.2248C26.6999 14.4264 26.8924 14.5832 27.1172 14.6756ZM25.4798 18.1104C25.6184 18.2371 25.7841 18.3305 25.9643 18.3832C26.1445 18.436 26.3344 18.4469 26.5195 18.415C26.7045 18.3832 26.8798 18.3094 27.032 18.1993C27.1841 18.0893 27.3091 17.9459 27.3973 17.7801C27.4855 17.6144 27.5346 17.4306 27.5409 17.243C27.5472 17.0553 27.5105 16.8687 27.4335 16.6974C27.3566 16.5261 27.2415 16.3747 27.0971 16.2547C26.9526 16.1347 26.7826 16.0494 26.6001 16.0052C26.3346 15.9409 26.0553 15.9668 25.8061 16.0787C25.5569 16.1906 25.352 16.3823 25.2237 16.6234C25.0953 16.8646 25.0508 17.1416 25.0972 17.4108C25.1436 17.68 25.2782 17.9261 25.4798 18.1104ZM28.9147 20.1664C28.9904 20.3556 29.1118 20.5229 29.2681 20.6536C29.4244 20.7842 29.6107 20.874 29.8102 20.9149C30.0098 20.9559 30.2164 20.9467 30.4115 20.8881C30.6066 20.8296 30.7841 20.7235 30.9282 20.5795C31.0722 20.4354 31.1783 20.2579 31.2368 20.0628C31.2954 19.8677 31.3046 19.6611 31.2637 19.4615C31.2227 19.262 31.1329 19.0757 31.0023 18.9194C30.8716 18.7631 30.7043 18.6417 30.5151 18.566C30.2914 18.4764 30.0463 18.4545 29.8102 18.5029C29.5742 18.5513 29.3575 18.668 29.1871 18.8384C29.0167 19.0088 28.9 19.2255 28.8516 19.4615C28.8032 19.6976 28.8251 19.9427 28.9147 20.1664ZM33.2729 19.6001C33.4979 19.6943 33.7459 19.7195 33.9853 19.6725C34.2247 19.6254 34.4448 19.5084 34.6175 19.3361C34.7903 19.1638 34.9079 18.944 34.9555 18.7048C35.0032 18.4655 34.9786 18.2174 34.885 17.9921C34.7915 17.7668 34.633 17.5744 34.4299 17.4393C34.2267 17.3042 33.988 17.2325 33.744 17.2333C33.5001 17.2341 33.2618 17.3074 33.0596 17.4438C32.8573 17.5803 32.7002 17.7737 32.6081 17.9996C32.4855 18.3002 32.4867 18.6369 32.6112 18.9367C32.7357 19.2364 32.9735 19.4748 33.2729 19.6001Z" fill="#FBA820"/>
</g>
</g>
<defs>
<clipPath id="clip0_1305_3368">
<rect width="59.0944" height="59.0944" fill="white" transform="translate(0.5)"/>
</clipPath>
</defs>
</svg>
