<svg width="92" height="92" viewBox="0 0 92 92" fill="none" xmlns="http://www.w3.org/2000/svg">
<g id="special fetures" clip-path="url(#clip0_529_6463)">
<g id="30. Art tutorial">
<path id="Vector" d="M6.22733 4.33496H85.7728C86.7774 4.33496 87.7409 4.73404 88.4512 5.4444C89.1616 6.15477 89.5607 7.11823 89.5607 8.12284V57.3653H2.43945V8.12284C2.43945 7.11823 2.83853 6.15477 3.5489 5.4444C4.25926 4.73404 5.22272 4.33496 6.22733 4.33496Z" fill="white"/>
<path id="Vector_2" d="M2.43945 57.3662H89.5607V64.942C89.5607 65.9466 89.1616 66.91 88.4512 67.6204C87.7409 68.3308 86.7774 68.7298 85.7728 68.7298H6.22733C5.22272 68.7298 4.25926 68.3308 3.5489 67.6204C2.83853 66.91 2.43945 65.9466 2.43945 64.942V57.3662Z" fill="#DAD7E5"/>
<path id="Vector_3" d="M89.5605 8.12284V53.5774H57.3635C44.3036 53.5774 31.7786 48.3894 22.5439 39.1546C13.3091 29.9199 8.12109 17.3949 8.12109 4.33496H85.7726C86.7772 4.33496 87.7407 4.73404 88.4511 5.4444C89.1614 6.15477 89.5605 7.11823 89.5605 8.12284Z" fill="#3D9AE2"/>
<path id="Vector_4" d="M89.5605 57.3662V64.942H15.6969C13.6876 64.942 11.7607 64.1438 10.34 62.7231C8.91925 61.3023 8.12109 59.3754 8.12109 57.3662H89.5605Z" fill="#EDEBF2"/>
<path id="Vector_5" d="M45.9994 64.9412C45.4971 64.9412 45.0154 64.7417 44.6602 64.3865C44.305 64.0313 44.1055 63.5496 44.1055 63.0473C44.1055 62.6727 44.2165 62.3065 44.4247 61.995C44.6328 61.6836 44.9286 61.4408 45.2746 61.2975C45.6207 61.1541 46.0015 61.1166 46.3689 61.1897C46.7363 61.2628 47.0738 61.4432 47.3386 61.708C47.6035 61.9729 47.7839 62.3104 47.857 62.6778C47.93 63.0452 47.8925 63.426 47.7492 63.772C47.6058 64.1181 47.3631 64.4139 47.0516 64.622C46.7402 64.8301 46.374 64.9412 45.9994 64.9412Z" fill="#425B72"/>
<path id="Vector_6" d="M53.5753 80.0931H38.4238L40.9428 68.7295H51.0564L53.5753 80.0931Z" fill="#DAD7E5"/>
<path id="Vector_7" d="M32.7416 80.0938H59.2567C59.7591 80.0938 60.2408 80.2933 60.596 80.6485C60.9511 81.0037 61.1507 81.4854 61.1507 81.9877V87.6695H30.8477V81.9877C30.8477 81.4854 31.0472 81.0037 31.4024 80.6485C31.7576 80.2933 32.2393 80.0938 32.7416 80.0938Z" fill="#DAD7E5"/>
<path id="Vector_8" d="M74.4083 47.8953H32.7416C32.2393 47.8953 31.7576 47.6958 31.4024 47.3406C31.0472 46.9854 30.8477 46.5037 30.8477 46.0014C30.8477 45.4991 31.0472 45.0173 31.4024 44.6621C31.7576 44.307 32.2393 44.1074 32.7416 44.1074H74.4083C74.9106 44.1074 75.3923 44.307 75.7475 44.6621C76.1027 45.0173 76.3022 45.4991 76.3022 46.0014C76.3022 46.5037 76.1027 46.9854 75.7475 47.3406C75.3923 47.6958 74.9106 47.8953 74.4083 47.8953Z" fill="#EDEBF2"/>
<path id="Vector_9" d="M38.4238 47.8957V44.1078C38.4238 43.6055 38.6234 43.1238 38.9785 42.7686C39.3337 42.4134 39.8155 42.2139 40.3178 42.2139C40.8201 42.2139 41.3018 42.4134 41.657 42.7686C42.0122 43.1238 42.2117 43.6055 42.2117 44.1078V47.8957C42.2117 48.398 42.0122 48.8797 41.657 49.2349C41.3018 49.5901 40.8201 49.7896 40.3178 49.7896C39.8155 49.7896 39.3337 49.5901 38.9785 49.2349C38.6234 48.8797 38.4238 48.398 38.4238 47.8957Z" fill="#919191"/>
<path id="Vector_10" d="M17.5908 49.7896V42.2139L25.1666 46.0017L17.5908 49.7896Z" fill="#3D9AE2"/>
<path id="Vector_11" d="M45.9992 36.5324C33.2341 36.5324 27.9121 22.593 38.0447 16.0968C39.9082 14.9288 42.0055 14.1843 44.1883 13.9159C46.3712 13.6476 48.5863 13.8619 50.6773 14.5437C50.0191 15.6574 49.7607 16.9622 49.9447 18.2426C50.1287 19.5231 50.7441 20.7023 51.6892 21.5856C52.6343 22.4688 53.8524 23.0032 55.1423 23.1002C56.4323 23.1973 57.7167 22.8513 58.7833 22.1195C61.1507 28.9566 55.1091 36.5324 45.9992 36.5324Z" fill="#E5E9EF"/>
<path id="Vector_12" d="M57.7419 30.4528C46.5866 37.7066 31.473 26.7975 38.045 16.0968C39.9085 14.9288 42.0058 14.1843 44.1886 13.9159C46.3715 13.6476 48.5866 13.8619 50.6775 14.5437C50.0194 15.6574 49.761 16.9622 49.945 18.2426C50.129 19.5231 50.7444 20.7023 51.6895 21.5856C52.6346 22.4688 53.8527 23.0032 55.1426 23.1002C56.4326 23.1973 57.717 22.8513 58.7836 22.1195C59.2297 23.5002 59.3677 24.962 59.1877 26.4018C59.0077 27.8416 58.5142 29.2244 57.7419 30.4528Z" fill="#E5E9EF"/>
<path id="Vector_13" d="M40.8675 20.0355C41.2242 19.6789 41.7079 19.4785 42.2122 19.4785C42.7166 19.4785 43.2003 19.6789 43.5569 20.0355C43.9136 20.3921 44.1139 20.8758 44.1139 21.3802C44.1139 21.8846 43.9136 22.3683 43.5569 22.7249C43.3803 22.9015 43.1707 23.0416 42.94 23.1371C42.7093 23.2327 42.462 23.2819 42.2122 23.2819C41.7079 23.2819 41.2242 23.0815 40.8675 22.7249C40.691 22.5483 40.5509 22.3387 40.4553 22.1079C40.3597 21.8772 40.3105 21.6299 40.3105 21.3802C40.3105 20.8758 40.5109 20.3921 40.8675 20.0355Z" fill="#3D9AE2"/>
<path id="Vector_14" d="M40.3174 28.9568C40.0217 28.9562 39.7302 28.8862 39.4663 28.7526C39.2024 28.6191 38.9734 28.4255 38.7978 28.1875C38.6222 27.9496 38.5047 27.6738 38.4548 27.3822C38.405 27.0907 38.4241 26.7915 38.5106 26.5087C38.5972 26.2259 38.7488 25.9672 38.9532 25.7535C39.1577 25.5398 39.4094 25.377 39.6881 25.278C39.9669 25.1791 40.2649 25.1468 40.5584 25.1838C40.8518 25.2208 41.1325 25.3259 41.378 25.4909C41.7152 25.7175 41.9706 26.0465 42.1065 26.4294C42.2424 26.8122 42.2516 27.2286 42.1327 27.6171C42.0138 28.0056 41.7732 28.3455 41.4463 28.5867C41.1195 28.828 40.7237 28.9577 40.3174 28.9568Z" fill="white"/>
<path id="Vector_15" d="M45.9994 32.7449C45.7028 32.7471 45.4099 32.6798 45.1441 32.5481C44.8784 32.4165 44.6472 32.2243 44.4694 31.987C44.2915 31.7497 44.1718 31.474 44.12 31.182C44.0681 30.8899 44.0856 30.5899 44.171 30.3058C44.2563 30.0218 44.4072 29.7618 44.6114 29.5468C44.8156 29.3317 45.0675 29.1676 45.3467 29.0677C45.626 28.9678 45.9248 28.9349 46.219 28.9716C46.5133 29.0083 46.7949 29.1135 47.041 29.2789C47.3769 29.5046 47.6317 29.8319 47.768 30.2129C47.9043 30.5939 47.915 31.0086 47.7986 31.3961C47.6821 31.7836 47.4446 32.1237 47.1208 32.3664C46.797 32.6091 46.404 32.7417 45.9994 32.7449Z" fill="#3D9AE2"/>
<path id="Vector_16" d="M51.6817 30.8504C51.3381 30.8521 51.0005 30.7603 50.7051 30.5848C50.4097 30.4093 50.1675 30.1568 50.0047 29.8543C49.8418 29.5517 49.7643 29.2106 49.7804 28.8673C49.7966 28.5241 49.9058 28.1918 50.0964 27.9059C50.287 27.62 50.5518 27.3913 50.8624 27.2444C51.173 27.0975 51.5177 27.0378 51.8596 27.0718C52.2016 27.1058 52.5278 27.2322 52.8034 27.4374C53.079 27.6426 53.2935 27.9189 53.4241 28.2367C53.542 28.5236 53.5876 28.8351 53.5569 29.1438C53.5262 29.4525 53.4202 29.7489 53.2481 30.007C53.076 30.2651 52.8432 30.477 52.5701 30.624C52.297 30.7711 51.9919 30.8488 51.6817 30.8504Z" fill="#3D9AE2"/>
<path id="Vector_17" d="M52.7418 76.3052H49.9767C49.0446 76.3045 48.1245 76.0948 47.2843 75.6913C46.444 75.2879 45.705 74.7011 45.1216 73.9741C44.5383 73.2472 44.1254 72.3986 43.9135 71.4909C43.7016 70.5833 43.696 69.6396 43.8971 68.7295H51.0562L52.7418 76.3052ZM61.1509 81.9871V83.881H38.4236C37.419 83.881 36.4556 83.4819 35.7452 82.7716C35.0348 82.0612 34.6357 81.0977 34.6357 80.0931H59.257C59.7593 80.0931 60.241 80.2927 60.5962 80.6478C60.9514 81.003 61.1509 81.4848 61.1509 81.9871Z" fill="#EDEBF2"/>
<path id="Vector_18" d="M23.2726 45.0548L17.5908 47.8957V42.2139L23.2726 45.0548Z" fill="#3D9AE2"/>
<path id="Vector_19" d="M85.7722 2.44141H6.22674C4.71983 2.44141 3.27464 3.04002 2.20909 4.10557C1.14354 5.17112 0.544922 6.61631 0.544922 8.12322L0.544922 64.9414C0.544922 66.4483 1.14354 67.8935 2.20909 68.9591C3.27464 70.0246 4.71983 70.6232 6.22674 70.6232H38.5942L36.9086 78.199H32.7419C31.7373 78.199 30.7738 78.5981 30.0635 79.3084C29.3531 80.0188 28.954 80.9823 28.954 81.9869V87.6687C28.954 88.171 29.1536 88.6527 29.5087 89.0079C29.8639 89.3631 30.3456 89.5626 30.848 89.5626H61.151C61.6533 89.5626 62.135 89.3631 62.4902 89.0079C62.8454 88.6527 63.0449 88.171 63.0449 87.6687V81.9869C63.0449 80.9823 62.6458 80.0188 61.9355 79.3084C61.2251 78.5981 60.2617 78.199 59.257 78.199H55.0904L53.4048 70.6232H85.7722C87.2791 70.6232 88.7243 70.0246 89.7898 68.9591C90.8554 67.8935 91.454 66.4483 91.454 64.9414V8.12322C91.454 6.61631 90.8554 5.17112 89.7898 4.10557C88.7243 3.04002 87.2791 2.44141 85.7722 2.44141ZM4.3328 8.12322C4.3328 7.62092 4.53234 7.13919 4.88752 6.78401C5.24271 6.42882 5.72444 6.22929 6.22674 6.22929H85.7722C86.2745 6.22929 86.7562 6.42882 87.1114 6.78401C87.4666 7.13919 87.6661 7.62092 87.6661 8.12322V55.4717H4.3328V8.12322ZM59.257 85.7747H32.7419V81.9869H59.257V85.7747ZM51.2078 78.199H40.7911L42.4578 70.6232H49.5411L51.2078 78.199ZM87.6661 64.9414C87.6661 65.4437 87.4666 65.9254 87.1114 66.2806C86.7562 66.6358 86.2745 66.8353 85.7722 66.8353H6.22674C5.72444 66.8353 5.24271 66.6358 4.88752 66.2806C4.53234 65.9254 4.3328 65.4437 4.3328 64.9414V59.2596H87.6661V64.9414Z" fill="#3D9AE2"/>
<path id="Vector_20" d="M44.6549 64.3926C44.8759 64.6122 45.1476 64.7738 45.446 64.8632C45.7444 64.9526 46.0602 64.9671 46.3655 64.9053C46.6708 64.8435 46.9562 64.7073 47.1963 64.5089C47.4364 64.3104 47.6238 64.0558 47.742 63.7676C47.9305 63.3053 47.9288 62.7872 47.7373 62.3261C47.5457 61.865 47.1799 61.4982 46.7193 61.3055C46.3148 61.1386 45.865 61.117 45.4463 61.2442C45.0276 61.3715 44.6659 61.6398 44.4227 62.0035C44.1794 62.3673 44.0696 62.804 44.112 63.2396C44.1543 63.6751 44.3462 64.0825 44.6549 64.3926ZM74.4087 44.1085H42.2117C42.2117 43.6062 42.0122 43.1245 41.657 42.7693C41.3018 42.4141 40.8201 42.2146 40.3178 42.2146C39.8155 42.2146 39.3337 42.4141 38.9786 42.7693C38.6234 43.1245 38.4238 43.6062 38.4238 44.1085H32.742C32.2397 44.1085 31.758 44.3081 31.4028 44.6633C31.0476 45.0184 30.8481 45.5002 30.8481 46.0025C30.8481 46.5048 31.0476 46.9865 31.4028 47.3417C31.758 47.6969 32.2397 47.8964 32.742 47.8964H38.4238C38.4238 48.3987 38.6234 48.8804 38.9786 49.2356C39.3337 49.5908 39.8155 49.7903 40.3178 49.7903C40.8201 49.7903 41.3018 49.5908 41.657 49.2356C42.0122 48.8804 42.2117 48.3987 42.2117 47.8964H74.4087C74.911 47.8964 75.3927 47.6969 75.7479 47.3417C76.1031 46.9865 76.3026 46.5048 76.3026 46.0025C76.3026 45.5002 76.1031 45.0184 75.7479 44.6633C75.3927 44.3081 74.911 44.1085 74.4087 44.1085ZM26.0185 44.3169C17.7988 40.207 17.7799 39.8661 16.5488 40.529C15.3178 41.1919 15.6966 41.76 15.6966 49.7903C15.6966 50.2927 15.8961 50.7744 16.2513 51.1296C16.6065 51.4848 17.0882 51.6843 17.5905 51.6843C18.2345 51.6843 17.8367 51.779 26.0185 47.6881C26.3288 47.5291 26.5891 47.2877 26.7709 46.9903C26.9527 46.6929 27.0489 46.351 27.0489 46.0025C27.0489 45.6539 26.9527 45.3121 26.7709 45.0147C26.5891 44.7173 26.3288 44.4758 26.0185 44.3169ZM19.4845 46.7222V45.2828L20.9238 46.0025L19.4845 46.7222ZM45.9996 38.4267C56.4352 38.4267 63.2723 29.5441 60.5829 21.5896C60.4885 21.3066 60.3286 21.0498 60.1162 20.8404C59.9038 20.6309 59.6448 20.4745 59.3605 20.384C59.0762 20.2936 58.7746 20.2716 58.4802 20.3198C58.1857 20.368 57.9069 20.4851 57.6663 20.6616C57.1009 21.0641 56.4359 21.3036 55.7437 21.3538C55.0515 21.4041 54.3588 21.2633 53.7412 20.9467C53.1236 20.6301 52.6049 20.1499 52.2417 19.5585C51.8784 18.9672 51.6846 18.2874 51.6814 17.5934C51.6814 15.6994 52.9882 15.3775 52.4579 13.9191C52.3623 13.6451 52.205 13.3966 51.9981 13.193C51.7912 12.9894 51.5403 12.8361 51.2648 12.7449C41.4352 9.50626 30.8481 15.9457 30.8481 25.1691C30.8481 32.4797 37.6473 38.4267 45.9996 38.4267ZM48.0829 15.8699C47.7869 17.1395 47.8236 18.4641 48.1894 19.7154C48.5551 20.9667 49.2376 22.1024 50.1708 23.0128C51.104 23.9231 52.2563 24.5772 53.5163 24.9119C54.7763 25.2465 56.1013 25.2503 57.3632 24.9229C57.4958 30.6047 51.9655 34.6388 45.9996 34.6388C39.7307 34.6388 34.636 30.3964 34.636 25.1691C34.636 19.1275 41.2648 14.7903 48.0829 15.8699Z" fill="#3D9AE2"/>
<path id="Vector_21" d="M41.4924 23.1234C41.8684 23.2778 42.2841 23.3072 42.6781 23.2072C43.0721 23.1072 43.4235 22.883 43.6802 22.5679C43.937 22.2528 44.0856 21.8635 44.1041 21.4574C44.1225 21.0514 44.0098 20.6501 43.7827 20.313C43.5555 19.976 43.2259 19.7209 42.8426 19.5856C42.4593 19.4503 42.0427 19.4418 41.6542 19.5616C41.2658 19.6813 40.9261 19.9228 40.6855 20.2505C40.4449 20.5781 40.3161 20.9745 40.3182 21.3809C40.32 21.7548 40.4325 22.1198 40.6415 22.4299C40.8505 22.74 41.1466 22.9813 41.4924 23.1234ZM38.9735 28.4074C39.1867 28.6024 39.4416 28.7459 39.7189 28.8271C39.9961 28.9083 40.2882 28.9251 40.5729 28.876C40.8575 28.827 41.1272 28.7135 41.3613 28.5442C41.5954 28.3749 41.7876 28.1543 41.9233 27.8993C42.059 27.6443 42.1346 27.3617 42.1442 27.0729C42.1539 26.7842 42.0974 26.4972 41.9791 26.2336C41.8607 25.9701 41.6836 25.7372 41.4614 25.5526C41.2392 25.3681 40.9777 25.2368 40.697 25.1688C40.2885 25.0699 39.8588 25.1097 39.4754 25.2819C39.0921 25.4541 38.7769 25.7489 38.5794 26.1198C38.382 26.4908 38.3136 26.9169 38.3849 27.3311C38.4563 27.7452 38.6633 28.1239 38.9735 28.4074ZM44.2576 31.5703C44.374 31.8613 44.5609 32.1188 44.8013 32.3197C45.0418 32.5207 45.3283 32.6588 45.6353 32.7218C45.9423 32.7848 46.2601 32.7706 46.5602 32.6805C46.8604 32.5905 47.1335 32.4273 47.3551 32.2057C47.5767 31.9841 47.7398 31.711 47.8299 31.4109C47.92 31.1107 47.9342 30.7929 47.8712 30.4859C47.8082 30.1789 47.6701 29.8924 47.4691 29.6519C47.2681 29.4115 47.0106 29.2247 46.7197 29.1082C46.3755 28.9704 45.9985 28.9367 45.6353 29.0112C45.2721 29.0857 44.9388 29.2652 44.6767 29.5273C44.4145 29.7894 44.2351 30.1228 44.1606 30.4859C44.0861 30.8491 44.1198 31.2261 44.2576 31.5703ZM50.9621 30.6991C51.3084 30.844 51.6898 30.8827 52.0581 30.8104C52.4264 30.7381 52.7649 30.558 53.0307 30.2929C53.2964 30.0279 53.4774 29.6898 53.5507 29.3217C53.624 28.9536 53.5862 28.572 53.4422 28.2254C53.2983 27.8788 53.0545 27.5828 52.742 27.375C52.4295 27.1671 52.0623 27.0568 51.6869 27.058C51.3116 27.0593 50.9451 27.172 50.634 27.3819C50.3228 27.5918 50.0811 27.8894 49.9394 28.237C49.7509 28.6993 49.7526 29.2174 49.9441 29.6785C50.1357 30.1396 50.5015 30.5064 50.9621 30.6991Z" fill="#3D9AE2"/>
</g>
</g>
<defs>
<clipPath id="clip0_529_6463">
<rect width="90.9091" height="90.9091" fill="white" transform="translate(0.544922 0.546875)"/>
</clipPath>
</defs>
</svg>
