<svg width="101" height="101" viewBox="0 0 101 101" fill="none" xmlns="http://www.w3.org/2000/svg">
<g id="Play" clip-path="url(#clip0_561_7182)">
<path id="Vector" d="M41.127 33.484V67.859L43.9535 69.0871L66.127 51.8996V49.4434L43.9535 32.2559L41.127 33.484ZM44.252 36.6996L62.0348 50.6715L44.252 64.6434V36.6996Z" fill="white"/>
<path id="Vector_2" d="M50.5 0.671875C37.1453 0.671875 24.5891 5.875 15.1469 15.3203C5.70156 24.7609 0.5 37.3172 0.5 50.6719C0.5 64.0266 5.70156 76.5828 15.1469 86.025C24.5891 95.4703 37.1453 100.672 50.5 100.672C63.8547 100.672 76.4109 95.4688 85.8547 86.0234C95.2984 76.5828 100.5 64.0266 100.5 50.6719C100.5 37.3172 95.2984 24.7609 85.8531 15.3187C76.4109 5.87344 63.8547 0.671875 50.5 0.671875ZM83.6453 83.8156C74.7906 92.6703 63.0203 97.5469 50.5 97.5469C37.9797 97.5469 26.2094 92.6703 17.3563 83.8141C8.50156 74.9625 3.625 63.1922 3.625 50.6719C3.625 38.1516 8.50156 26.3813 17.3563 17.5281C26.2094 8.67344 37.9797 3.79688 50.5 3.79688C63.0203 3.79688 74.7906 8.675 83.6453 17.5297C92.5 26.3812 97.375 38.1516 97.375 50.6719C97.375 63.1922 92.5 74.9625 83.6453 83.8156Z" fill="white"/>
</g>
<defs>
<clipPath id="clip0_561_7182">
<rect width="100" height="100" fill="white" transform="translate(0.5 0.673828)"/>
</clipPath>
</defs>
</svg>
