<svg width="36" height="37" viewBox="0 0 36 37" fill="none" xmlns="http://www.w3.org/2000/svg">
<g id="search">
<mask id="mask0_1361_5372" style="mask-type:alpha" maskUnits="userSpaceOnUse" x="0" y="0" width="36" height="37">
<rect id="Bounding box" y="0.706055" width="36" height="36" fill="#D9D9D9"/>
</mask>
<g mask="url(#mask0_1361_5372)">
<path id="search_2" d="M29.3141 31.5716L19.8929 22.1504C19.1429 22.7696 18.2804 23.2543 17.3054 23.6043C16.3304 23.9543 15.3218 24.1293 14.2795 24.1293C11.7157 24.1293 9.54595 23.2416 7.77015 21.4662C5.99435 19.6909 5.10645 17.5217 5.10645 14.9586C5.10645 12.3955 5.99412 10.2255 7.76947 8.44855C9.54482 6.67165 11.714 5.7832 14.2771 5.7832C16.8402 5.7832 19.0102 6.6711 20.7871 8.4469C22.5641 10.2227 23.4525 12.3925 23.4525 14.9562C23.4525 16.0274 23.2727 17.0505 22.9131 18.0255C22.5535 19.0005 22.0737 19.8485 21.4737 20.5697L30.8948 29.9908L29.3141 31.5716ZM14.2795 21.8793C16.2122 21.8793 17.8492 21.2087 19.1905 19.8673C20.5319 18.526 21.2026 16.8889 21.2026 14.9562C21.2026 13.0235 20.5319 11.3865 19.1905 10.0452C17.8492 8.7038 16.2122 8.03313 14.2795 8.03313C12.3468 8.03313 10.7097 8.7038 9.3684 10.0452C8.02707 11.3865 7.35641 13.0235 7.35641 14.9562C7.35641 16.8889 8.02707 18.526 9.3684 19.8673C10.7097 21.2087 12.3468 21.8793 14.2795 21.8793Z" fill="#4D4D4D"/>
</g>
</g>
</svg>
