<svg width="25" height="25" viewBox="0 0 25 25" fill="none" xmlns="http://www.w3.org/2000/svg">
<g id="mdi:twitter">
<path id="Vector" d="M22.96 6.70605C22.19 7.05605 21.36 7.28605 20.5 7.39605C21.38 6.86605 22.06 6.02605 22.38 5.01605C21.55 5.51605 20.63 5.86605 19.66 6.06605C18.87 5.20605 17.76 4.70605 16.5 4.70605C14.15 4.70605 12.23 6.62605 12.23 8.99605C12.23 9.33605 12.27 9.66606 12.34 9.97606C8.78004 9.79606 5.61004 8.08605 3.50004 5.49605C3.13004 6.12605 2.92004 6.86605 2.92004 7.64605C2.92004 9.13605 3.67004 10.4561 4.83004 11.2061C4.12004 11.2061 3.46004 11.0061 2.88004 10.7061V10.7361C2.88004 12.8161 4.36004 14.5561 6.32004 14.9461C5.69077 15.1183 5.03013 15.1422 4.39004 15.0161C4.66165 15.8685 5.19358 16.6145 5.91106 17.149C6.62854 17.6835 7.49549 17.9797 8.39004 17.9961C6.87367 19.1965 4.99404 19.8454 3.06004 19.8361C2.72004 19.8361 2.38004 19.8161 2.04004 19.7761C3.94004 20.9961 6.20004 21.7061 8.62004 21.7061C16.5 21.7061 20.83 15.1661 20.83 9.49605C20.83 9.30605 20.83 9.12605 20.82 8.93605C21.66 8.33605 22.38 7.57605 22.96 6.70605Z" fill="white"/>
</g>
</svg>
