<svg width="51" height="50" viewBox="0 0 51 50" fill="none" xmlns="http://www.w3.org/2000/svg">
<g id="Telescope">
<path id="Vector" d="M41.0878 2.2062C40.1319 0.809138 38.3672 0.294432 36.8966 1.02973C35.3525 1.69149 34.5437 3.38267 34.9113 4.92678L19.176 13.7503C18.9555 13.8238 18.5878 14.118 18.4407 14.6327C18.2937 15.0003 18.2937 15.4415 18.2937 15.9562L1.89663 24.3385C1.67604 24.4121 1.30839 24.7062 1.23486 25.368C1.08781 27.0591 2.92604 31.2503 4.24957 32.2062C4.69075 32.5003 5.13192 32.5738 5.42604 32.4268L19.6172 26.9121C19.8378 27.7209 20.279 28.3827 20.9407 28.8974L10.3525 48.1621C10.1319 48.5297 10.279 48.9709 10.6466 49.1915C11.0143 49.4121 11.4555 49.265 11.676 48.8974L22.1907 29.6327C22.4113 29.7062 22.7055 29.7797 22.926 29.8533V48.5297C22.926 48.9709 23.2202 49.265 23.6613 49.265C24.1025 49.265 24.3966 48.9709 24.3966 48.5297V29.8533C24.6907 29.7797 24.9113 29.7062 25.2055 29.6327L35.7202 48.8974C35.9407 49.265 36.3819 49.4121 36.7496 49.1915C37.1172 48.9709 37.2643 48.5297 37.0437 48.1621L26.4555 28.8974C27.3378 28.0885 27.926 26.9856 27.926 25.6621C27.926 25.5886 27.926 25.5885 27.926 25.515L41.8966 20.8091C42.8525 22.1327 44.5437 22.6474 46.0878 21.9856C47.6319 21.3238 48.4407 19.6327 48.0731 18.015C50.0584 16.4709 50.426 12.1327 48.6613 8.08855C47.2643 5.14737 44.176 1.61796 41.0878 2.2062ZM19.3966 25.4415L5.05839 31.0297C4.24957 30.4415 2.55839 26.618 2.70545 25.5885L18.5878 17.3533C19.029 19.118 19.8378 21.1033 20.6466 22.6474C19.9113 23.3827 19.4702 24.3385 19.3966 25.4415ZM23.6613 28.4562C22.1172 28.4562 20.8672 27.2062 20.8672 25.6621C20.8672 24.118 22.1172 22.868 23.6613 22.868C25.2055 22.868 26.4555 24.118 26.4555 25.6621C26.4555 27.2062 25.2055 28.4562 23.6613 28.4562ZM27.6319 24.118C27.0437 22.5738 25.4996 21.3974 23.6613 21.3974C22.9996 21.3974 22.4113 21.5444 21.8231 21.8385C20.2055 18.6768 19.5437 15.6621 19.8378 15.0738L35.426 6.32384L41.1613 19.4856L27.6319 24.118ZM45.4996 20.6621C44.5437 21.1033 43.2937 20.5885 42.926 19.6327L36.4555 5.00031C36.0143 3.9709 36.4555 2.79443 37.4849 2.35326C38.5143 1.91208 39.6172 2.35326 40.0584 3.38267L46.4555 18.015C46.9702 19.0444 46.4555 20.2209 45.4996 20.6621ZM47.4849 16.618L41.8231 3.67679C44.029 3.75031 46.3084 6.4709 47.2643 8.82384C48.6613 11.9856 48.5143 15.2944 47.4849 16.618Z" fill="#3D9AE2"/>
<path id="Vector_2" d="M42.4117 26.5441C41.9705 26.5441 41.6764 26.8382 41.6764 27.2794V27.9411H41.0146C40.5735 27.9411 40.2794 28.2352 40.2794 28.6764C40.2794 29.1176 40.5735 29.4117 41.0146 29.4117H41.6764V30.0735C41.6764 30.5146 41.9705 30.8088 42.4117 30.8088C42.8529 30.8088 43.147 30.5146 43.147 30.0735V29.4117H43.8088C44.2499 29.4117 44.5441 29.1176 44.5441 28.6764C44.5441 28.2352 44.2499 27.9411 43.8088 27.9411H43.147V27.2794C43.147 26.9117 42.8529 26.5441 42.4117 26.5441ZM26.3088 6.02935C26.7499 6.02935 27.0441 5.73524 27.0441 5.29406V4.6323H27.7058C28.147 4.6323 28.4411 4.33818 28.4411 3.897C28.4411 3.45582 28.147 3.16171 27.7058 3.16171H27.0441V2.49994C27.0441 2.05877 26.7499 1.76465 26.3088 1.76465C25.8676 1.76465 25.5735 2.05877 25.5735 2.49994V3.16171H24.9117C24.4705 3.16171 24.1764 3.45582 24.1764 3.897C24.1764 4.33818 24.4705 4.6323 24.9117 4.6323H25.5735V5.29406C25.5735 5.73524 25.9411 6.02935 26.3088 6.02935ZM17.8529 8.30877C18.2941 8.30877 18.5882 8.01465 18.5882 7.57347V6.91171H19.2499C19.6911 6.91171 19.9852 6.61759 19.9852 6.17641C19.9852 5.73524 19.6911 5.44112 19.2499 5.44112H18.5882V4.77935C18.5882 4.33818 18.2941 4.04406 17.8529 4.04406C17.4117 4.04406 17.1176 4.33818 17.1176 4.77935V5.44112H16.4558C16.0146 5.44112 15.7205 5.73524 15.7205 6.17641C15.7205 6.61759 16.0146 6.91171 16.4558 6.91171H17.1176V7.57347C17.1176 7.94112 17.4117 8.30877 17.8529 8.30877ZM11.897 14.6323C12.3382 14.6323 12.6323 14.3382 12.6323 13.897V13.2352H13.2941C13.7352 13.2352 14.0294 12.9411 14.0294 12.4999C14.0294 12.0588 13.7352 11.7646 13.2941 11.7646H12.6323V11.1029C12.6323 10.6617 12.3382 10.3676 11.897 10.3676C11.4558 10.3676 11.1617 10.6617 11.1617 11.1029V11.7646H10.4999C10.0588 11.7646 9.76465 12.0588 9.76465 12.4999C9.76465 12.9411 10.0588 13.2352 10.4999 13.2352H11.1617V13.897C11.1617 14.3382 11.5294 14.6323 11.897 14.6323ZM35.5735 34.7058C36.0146 34.7058 36.3088 34.4117 36.3088 33.9705V33.3088H36.9705C37.4117 33.3088 37.7058 33.0146 37.7058 32.5735C37.7058 32.1323 37.4117 31.8382 36.9705 31.8382H36.3088V31.1764C36.3088 30.7352 36.0146 30.4411 35.5735 30.4411C35.1323 30.4411 34.8382 30.7352 34.8382 31.1764V31.8382H34.1764C33.7352 31.8382 33.4411 32.1323 33.4411 32.5735C33.4411 33.0146 33.7352 33.3088 34.1764 33.3088H34.8382V33.9705C34.8382 34.3382 35.2058 34.7058 35.5735 34.7058ZM43.5882 40.7352C44.0294 40.7352 44.3235 40.4411 44.3235 39.9999V39.3382H44.9852C45.4264 39.3382 45.7205 39.0441 45.7205 38.6029C45.7205 38.1617 45.4264 37.8676 44.9852 37.8676H44.3235V37.2058C44.3235 36.7646 44.0294 36.4705 43.5882 36.4705C43.147 36.4705 42.8529 36.7646 42.8529 37.2058V37.8676H42.1911C41.7499 37.8676 41.4558 38.1617 41.4558 38.6029C41.4558 39.0441 41.7499 39.3382 42.1911 39.3382H42.8529V39.9999C42.8529 40.3676 43.2205 40.7352 43.5882 40.7352ZM23.147 25.147C22.8529 25.4411 22.8529 25.8823 23.147 26.1764C23.4411 26.4705 23.8823 26.4705 24.1764 26.1764C24.4705 25.8823 24.4705 25.4411 24.1764 25.147C23.8823 24.8529 23.4411 24.8529 23.147 25.147Z" fill="#3D9AE2"/>
</g>
</svg>
