<svg width="25" height="25" viewBox="0 0 25 25" fill="none" xmlns="http://www.w3.org/2000/svg">
<g id="ant-design:youtube-filled">
<path id="Vector" d="M22.5617 7.6459C22.4422 7.20068 22.2078 6.79466 21.882 6.46848C21.5563 6.14231 21.1505 5.90741 20.7055 5.7873C19.0672 5.34668 12.5 5.34668 12.5 5.34668C12.5 5.34668 5.93281 5.34668 4.29453 5.78496C3.84927 5.90468 3.44334 6.13944 3.11751 6.46568C2.79169 6.79192 2.55744 7.19814 2.43828 7.64355C2 9.28418 2 12.7061 2 12.7061C2 12.7061 2 16.1279 2.43828 17.7662C2.67969 18.6709 3.39219 19.3834 4.29453 19.6248C5.93281 20.0654 12.5 20.0654 12.5 20.0654C12.5 20.0654 19.0672 20.0654 20.7055 19.6248C21.6102 19.3834 22.3203 18.6709 22.5617 17.7662C23 16.1279 23 12.7061 23 12.7061C23 12.7061 23 9.28418 22.5617 7.6459ZM10.4141 15.8467V9.56543L15.8516 12.6826L10.4141 15.8467Z" fill="white"/>
</g>
</svg>
